<?xml version="1.0" encoding="UTF-8" standalone="no"?>
<!-- Created with Inkscape (http://www.inkscape.org/) -->
<svg
   xmlns:svg="http://www.w3.org/2000/svg"
   xmlns="http://www.w3.org/2000/svg"
   version="1.0"
   width="800"
   height="800"
   viewBox="0 0 1 1"
   id="svg3981">
  <defs
     id="defs3983">
    <linearGradient
       id="linearGradient6051">
      <stop
         id="stop6052"
         style="stop-color:#000000;stop-opacity:0.37301588"
         offset="0" />
      <stop
         id="stop6053"
         style="stop-color:#000000;stop-opacity:0"
         offset="1" />
    </linearGradient>
    <linearGradient
       id="linearGradient6048">
      <stop
         id="stop6049"
         style="stop-color:#7c6146;stop-opacity:1"
         offset="0" />
      <stop
         id="stop6050"
         style="stop-color:#d6c7b4;stop-opacity:1"
         offset="1" />
    </linearGradient>
    <linearGradient
       id="linearGradient6045">
      <stop
         id="stop6046"
         style="stop-color:#7c6146;stop-opacity:1"
         offset="0" />
      <stop
         id="stop6047"
         style="stop-color:#d6c7b4;stop-opacity:1"
         offset="1" />
    </linearGradient>
    <linearGradient
       id="linearGradient6042">
      <stop
         id="stop6043"
         style="stop-color:#7c6146;stop-opacity:1"
         offset="0" />
      <stop
         id="stop6044"
         style="stop-color:#d6c7b4;stop-opacity:1"
         offset="1" />
    </linearGradient>
    <linearGradient
       id="linearGradient5969">
      <stop
         id="stop5970"
         style="stop-color:#7c6146;stop-opacity:1"
         offset="0" />
      <stop
         id="stop5971"
         style="stop-color:#d6c7b4;stop-opacity:1"
         offset="1" />
    </linearGradient>
  </defs>
  <path
     d="M 0.13995402,0.60849409 L 0.01170492,0.23846685 L 0.060060546,0.22374678 L 0.0075,0.03032238 L 0.20933425,0.053457996 L 0.19882194,0.009297781 L 0.39855372,0.034534907 L 0.436398,0.10811625 L 0.47213888,0.0976087 L 0.47634379,0.17329155 L 0.49526593,0.16908853 L 0.44901181,0.009297781 L 0.53521266,0.049245469 L 0.53311021,0.087091646 L 0.54572402,0.10181172 L 0.5520314,0.049245469 L 0.62982241,0.017713326 L 0.64033376,0.051346979 L 0.66346082,0.026119362 L 0.69499772,0.11021776 L 0.73073953,0.082888629 L 0.842168,0.45291586 L 0.73494445,0.59798654 L 0.13995402,0.60849409 z"
     id="path18897"
     style="fill:#c2af94;fill-opacity:1;fill-rule:evenodd;stroke:none;stroke-width:1pt;stroke-linecap:butt;stroke-linejoin:miter;stroke-opacity:1" />
  <path
     d="M 0.24333115,0.12146701 L 0.20765113,0.053087143 L 0.008440449,0.032271744 L 0.17791811,0.61801269 L 0.25522416,0.62097952 L 0.07385253,0.14525875 L 0.16899858,0.15417828 L 0.24333115,0.12146701 z"
     id="path5973"
     style="fill:#000000;fill-opacity:0.0875;fill-rule:evenodd;stroke:none;stroke-width:2.5;stroke-linecap:round;stroke-linejoin:round;stroke-miterlimit:4;stroke-dasharray:none;stroke-opacity:1" />
  <path
     d="M 0.11086952,0.61155601 L 0.13762905,0.58479743 L 0.14357603,0.61452284 L 0.11086952,0.61155601 z"
     id="path5968"
     style="fill:#000000;fill-opacity:0.10625;fill-rule:evenodd;stroke:none;stroke-width:2.5;stroke-linecap:round;stroke-linejoin:round;stroke-miterlimit:4;stroke-opacity:1" />
  <path
     d="M 0.71757229,0.59719728 L 0.5778267,0.22851084 L 0.72946531,0.079845726 L 0.84245042,0.45745169 L 0.74433182,0.60017363 L 0.71757229,0.59719728 z"
     id="path4714"
     style="fill:#c2af94;fill-opacity:1;fill-rule:evenodd;stroke:none;stroke-width:2.5;stroke-linecap:round;stroke-linejoin:round;stroke-miterlimit:4;stroke-dasharray:none;stroke-opacity:1" />
  <path
     d="M 0.4440281,0.00848 L 0.61647925,0.60017363 L 0.70865182,0.59422094 L 0.57188067,0.23445402 L 0.6967588,0.1066043 L 0.66405228,0.023352217 L 0.64026624,0.053087143 L 0.62837323,0.020375872 L 0.55106717,0.053087143 L 0.54512019,0.10066112 L 0.53322717,0.082812561 L 0.53620066,0.050110797 L 0.4440281,0.00848 z"
     id="path4715"
     style="fill:#000000;fill-opacity:0.09375;fill-rule:evenodd;stroke:none;stroke-width:2.5;stroke-linecap:round;stroke-linejoin:round;stroke-miterlimit:4;stroke-dasharray:none;stroke-opacity:1" />
  <path
     d="M 0.56593369,0.60017363 L 0.44997508,0.20471909 L 0.49457462,0.17201734 L 0.61945274,0.59719728 L 0.56593369,0.60017363 z"
     id="path5337"
     style="fill:#c2af94;fill-opacity:1;fill-rule:evenodd;stroke:none;stroke-width:2.5;stroke-linecap:round;stroke-linejoin:round;stroke-miterlimit:4;stroke-dasharray:none;stroke-opacity:1" />
  <path
     d="M 0.47376112,0.10066112 L 0.35780252,0.13336288 L 0.53025367,0.60314046 L 0.56890718,0.60017363 L 0.44997508,0.20175226 L 0.4826816,0.17796052 L 0.47376112,0.10066112 z"
     id="path5338"
     style="fill:#000000;fill-opacity:0.190625;fill-rule:evenodd;stroke:none;stroke-width:2.5;stroke-linecap:round;stroke-linejoin:round;stroke-miterlimit:4;stroke-dasharray:none;stroke-opacity:1" />
  <path
     d="M 0.48565415,0.60314046 L 0.34293601,0.22255815 L 0.38456205,0.20175226 L 0.53322717,0.60314046 L 0.48565415,0.60314046 z"
     id="path5960"
     style="fill:#000000;fill-opacity:0.1125;fill-rule:evenodd;stroke:none;stroke-width:2.5;stroke-linecap:round;stroke-linejoin:round;stroke-miterlimit:4;stroke-dasharray:none;stroke-opacity:1" />
  <path
     d="M 0.44700159,0.60314046 L 0.26265742,0.13336288 L 0.3637495,0.13930606 L 0.38158951,0.20769544 L 0.34590951,0.22255815 L 0.50052065,0.60909315 L 0.44700159,0.60314046 z"
     id="path5961"
     style="fill:#000000;fill-opacity:0.328125;fill-rule:evenodd;stroke:none;stroke-width:2.5;stroke-linecap:round;stroke-linejoin:round;stroke-miterlimit:4;stroke-dasharray:none;stroke-opacity:1" />
  <path
     d="M 0.43213508,0.10362796 L 0.39645603,0.035248089 L 0.19724438,0.01443269 L 0.366723,0.60017363 L 0.4440281,0.60314046 L 0.26265742,0.1274197 L 0.35780252,0.13633923 L 0.43213508,0.10362796 z"
     id="path5962"
     style="fill:#000000;fill-opacity:0.16875;fill-rule:evenodd;stroke:none;stroke-width:2.5;stroke-linecap:round;stroke-linejoin:round;stroke-miterlimit:4;stroke-dasharray:none;stroke-opacity:1" />
  <path
     d="M 0.31023045,0.60314046 L 0.15859184,0.12146701 L 0.22697741,0.11552382 L 0.36969554,0.60314046 L 0.31023045,0.60314046 z"
     id="path5963"
     style="fill:#000000;fill-opacity:0.05312494;fill-rule:evenodd;stroke:none;stroke-width:2.5;stroke-linecap:round;stroke-linejoin:round;stroke-miterlimit:4;stroke-dasharray:none;stroke-opacity:1" />
  <path
     d="M 0.26265742,0.60611681 L 0.15264485,0.24337354 L 0.17940533,0.19877591 L 0.31320298,0.60314046 L 0.26265742,0.60611681 z"
     id="path5964"
     style="fill:#000000;fill-opacity:0.10625;fill-rule:evenodd;stroke:none;stroke-width:2.5;stroke-linecap:round;stroke-linejoin:round;stroke-miterlimit:4;stroke-dasharray:none;stroke-opacity:1" />
  <path
     d="M 0.22103137,0.60611681 L 0.072366259,0.13633923 L 0.16156533,0.13336288 L 0.17643184,0.19579957 L 0.15264485,0.24634989 L 0.25968393,0.60314046 L 0.22103137,0.60611681 z"
     id="path5965"
     style="fill:#000000;fill-opacity:0.20312494;fill-rule:evenodd;stroke:none;stroke-width:2.5;stroke-linecap:round;stroke-linejoin:round;stroke-miterlimit:4;stroke-dasharray:none;stroke-opacity:1" />
  <path
     d="M 0.14669882,0.62395587 L 0.012900212,0.23743036 L 0.063446733,0.22255815 L 0.18535137,0.62395587 L 0.14669882,0.62395587 z"
     id="path5966"
     style="fill:#000000;fill-opacity:0.065625;fill-rule:evenodd;stroke:none;stroke-width:2.5;stroke-linecap:round;stroke-linejoin:round;stroke-miterlimit:4;stroke-dasharray:none;stroke-opacity:1" />
  <path
     d="M 0.11210095,0.60785697 L 0.10615491,0.9884393 L 0.76028047,0.9914157 L 0.75433348,0.5959611 L 0.11210095,0.60785697 z"
     id="path4089"
     style="fill:#c2af94;fill-opacity:1;fill-rule:evenodd;stroke:none;stroke-width:2.5;stroke-linecap:round;stroke-linejoin:round;stroke-miterlimit:4;stroke-opacity:1" />
  <path
     d="M 0.87413661,0.79974091 L 0.75817801,0.99598 L 0.75520452,0.6094545 L 0.83650344,0.7409367 L 0.87290518,0.68213247 L 0.87413661,0.79974091 z"
     id="path4090"
     style="fill:#c2af94;fill-opacity:1;fill-rule:evenodd;stroke:none;stroke-width:2.5;stroke-linecap:round;stroke-linejoin:round;stroke-miterlimit:4;stroke-opacity:1" />
  <path
     d="M 0.10999848,0.61031982 L 0.014853379,0.84818972 L 0.10999848,0.75898495 L 0.11594547,0.61627252 L 0.10999848,0.61031982 z"
     id="path4092"
     style="fill:#c2af94;fill-opacity:1;fill-rule:evenodd;stroke:none;stroke-width:2.5;stroke-linecap:round;stroke-linejoin:round;stroke-miterlimit:4;stroke-opacity:1" />
  <path
     d="M 0.10912745,0.61242133 L 0.013982347,0.85029123 L 0.10912745,0.76108646 L 0.11507444,0.61837403 L 0.10912745,0.61242133 z"
     id="path18878"
     style="fill:#000000;fill-opacity:0.640625;fill-rule:evenodd;stroke:none;stroke-width:2.5;stroke-linecap:round;stroke-linejoin:round;stroke-miterlimit:4;stroke-opacity:1" />
  <path
     d="M 0.44901181,0.013510309 L 0.62351503,0.60008805 L 0.57515845,0.59588503 L 0.60038797,0.58536798 L 0.44901181,0.013510309 z"
     id="path18898"
     style="fill:#000000;fill-opacity:0.49375;fill-rule:evenodd;stroke:none;stroke-width:1pt;stroke-linecap:butt;stroke-linejoin:miter;stroke-opacity:1" />
  <path
     d="M 0.48054871,0.17119004 L 0.43429554,0.20062068 L 0.54992893,0.59588503 L 0.53521266,0.60008805 L 0.56885107,0.60008805 L 0.44901181,0.20272219 L 0.48054871,0.17119004 z"
     id="path18901"
     style="fill:#000000;fill-opacity:0.478125;fill-rule:evenodd;stroke:none;stroke-width:1pt;stroke-linecap:butt;stroke-linejoin:miter;stroke-opacity:1" />
  <path
     d="M 0.37542667,0.20483321 L 0.33337843,0.21534075 L 0.47844626,0.59798654 L 0.45742165,0.59798654 L 0.49526593,0.59798654 L 0.34809469,0.22374678 L 0.37542667,0.20483321 z"
     id="path18903"
     style="fill:#000000;fill-opacity:0.228125;fill-rule:evenodd;stroke:none;stroke-width:1pt;stroke-linecap:butt;stroke-linejoin:miter;stroke-opacity:1" />
  <path
     d="M 0.36070945,0.13334386 L 0.26820217,0.13334386 L 0.44270538,0.60218956 L 0.39014389,0.59798654 L 0.41957833,0.58536798 L 0.25138249,0.12283632 L 0.36070945,0.13334386 z"
     id="path18904"
     style="fill:#000000;fill-opacity:0.4375;fill-rule:evenodd;stroke:none;stroke-width:1pt;stroke-linecap:butt;stroke-linejoin:miter;stroke-opacity:1" />
  <path
     d="M 0.21564163,0.072371576 L 0.36911929,0.60008805 L 0.32496858,0.60008805 L 0.33758334,0.58326646 L 0.21564163,0.072371576 z"
     id="path18905"
     style="fill:#000000;fill-opacity:0.6;fill-rule:evenodd;stroke:none;stroke-width:1pt;stroke-linecap:butt;stroke-linejoin:miter;stroke-opacity:1" />
  <path
     d="M 0.16097766,0.12493783 L 0.31655874,0.60429107 L 0.28502185,0.60639258 L 0.27450955,0.53281124 L 0.16097766,0.12493783 z"
     id="path18906"
     style="fill:#000000;fill-opacity:0.446875;fill-rule:evenodd;stroke:none;stroke-width:1pt;stroke-linecap:butt;stroke-linejoin:miter;stroke-opacity:1" />
  <path
     d="M 0.17359242,0.19431615 L 0.13785156,0.24477138 L 0.23876868,0.60008805 L 0.25979233,0.60218956 L 0.15256878,0.24477138 L 0.17359242,0.19431615 z"
     id="path18907"
     style="fill:#000000;fill-opacity:0.4375;fill-rule:evenodd;stroke:none;stroke-width:1pt;stroke-linecap:butt;stroke-linejoin:miter;stroke-opacity:1" />
  <path
     d="M 0.15677275,0.10391322 L 0.21353916,0.11442078 L 0.15887521,0.11652229 L 0.15677275,0.10391322 z"
     id="path18908"
     style="fill:#000000;fill-opacity:0.2375;fill-rule:evenodd;stroke:none;stroke-width:1pt;stroke-linecap:butt;stroke-linejoin:miter;stroke-opacity:1" />
  <path
     d="M 0.13785156,0.13124236 L 0.072675304,0.13334386 L 0.21984654,0.60849409 L 0.19671949,0.60849409 L 0.055856576,0.12283632 L 0.13785156,0.13124236 z"
     id="path18909"
     style="fill:#000000;fill-opacity:0.56875;fill-rule:evenodd;stroke:none;stroke-width:1pt;stroke-linecap:butt;stroke-linejoin:miter;stroke-opacity:1" />
  <path
     d="M 0.18200226,0.61059559 L 0.01170492,0.032433398 L 0.16308013,0.60429107 L 0.14836386,0.61059559 L 0.18200226,0.61059559 z"
     id="path18910"
     style="fill:#000000;fill-opacity:0.465625;fill-rule:evenodd;stroke:none;stroke-width:1pt;stroke-linecap:butt;stroke-linejoin:miter;stroke-opacity:1" />
  <path
     d="M 0.83796308,0.46132189 L 0.73073953,0.59378352 L 0.62351503,0.59588503 L 0.69289525,0.58116495 L 0.56044123,0.23216233 L 0.71602231,0.087091646 L 0.57515845,0.23216233 L 0.70971493,0.58536798 L 0.83796308,0.46132189 z"
     id="path18911"
     style="fill:#000000;fill-opacity:0.484375;fill-rule:evenodd;stroke:none;stroke-width:1pt;stroke-linecap:butt;stroke-linejoin:miter;stroke-opacity:1" />
  <path
     d="M 0.43429554,0.10601474 L 0.37122175,0.14175941 L 0.53100775,0.60008805 L 0.50577823,0.60008805 L 0.50998314,0.57906344 L 0.35860699,0.13334386 L 0.41116848,0.12073481 L 0.43429554,0.10601474 z"
     id="path18912"
     style="fill:#000000;fill-opacity:0.41875;fill-rule:evenodd;stroke:none;stroke-width:1pt;stroke-linecap:butt;stroke-linejoin:miter;stroke-opacity:1" />
  <path
     d="M 0.55413385,0.049245469 L 0.54572402,0.0976087 L 0.55623631,0.10391322 L 0.55413385,0.049245469 z"
     id="path18913"
     style="fill:#000000;fill-opacity:0.2375;fill-rule:evenodd;stroke:none;stroke-width:1pt;stroke-linecap:butt;stroke-linejoin:miter;stroke-opacity:1" />
  <path
     d="M 0.66556328,0.028220872 L 0.64453868,0.051346979 L 0.64453868,0.06606705 L 0.66556328,0.028220872 z"
     id="path18914"
     style="fill:#000000;fill-opacity:0.2375;fill-rule:evenodd;stroke:none;stroke-width:1pt;stroke-linecap:butt;stroke-linejoin:miter;stroke-opacity:1" />
  <path
     d="M 0.11098553,0.61198392 L 0.13774601,0.58522534 L 0.14369204,0.61495076 L 0.11098553,0.61198392 z"
     id="path18915"
     style="fill:#000000;fill-opacity:0.10625;fill-rule:evenodd;stroke:none;stroke-width:2.5;stroke-linecap:round;stroke-linejoin:round;stroke-miterlimit:4;stroke-opacity:1" />
  <path
     d="M 0.74755825,0.61059559 L 0.75386563,0.98693687 L 0.41116848,0.9890384 L 0.73494445,0.9743183 L 0.74755825,0.61059559 z"
     id="path18918"
     style="fill:#000000;fill-opacity:0.384375;fill-rule:evenodd;stroke:none;stroke-width:1pt;stroke-linecap:butt;stroke-linejoin:miter;stroke-opacity:1" />
  <path
     d="M 0.73838484,0.59385959 L 0.83353089,0.74550106 L 0.95840902,0.55818148 L 0.85731693,0.43627495 L 0.73838484,0.59385959 z"
     id="path4091"
     style="fill:#c2af94;fill-opacity:1;fill-rule:evenodd;stroke:none;stroke-width:2.5;stroke-linecap:round;stroke-linejoin:round;stroke-miterlimit:4;stroke-opacity:1" />
  <path
     d="M 0.73494445,0.60212299 L 0.82579049,0.75146326 L 0.94518758,0.58116495 L 0.83357654,0.72002621 L 0.73494445,0.60212299 z"
     id="path18928"
     style="fill:#00000f;fill-opacity:0.23125;fill-rule:evenodd;stroke:none;stroke-width:1pt;stroke-linecap:butt;stroke-linejoin:miter;stroke-opacity:1" />
  <path
     d="M 0.10000728,0.61270661 L 0.41865024,0.62321416 L 0.7454558,0.60849409 L 0.73487883,0.58746949 L 0.10000728,0.61270661 z"
     id="path18922"
     style="fill:#000000;fill-opacity:0.659375;fill-rule:evenodd;stroke:none;stroke-width:1pt;stroke-linecap:butt;stroke-linejoin:miter;stroke-opacity:1" />
  <path
     d="M 0.8737049,0.79561396 L 0.75386563,0.9911399 L 0.74966072,0.76828484 L 0.76648039,0.95750622 L 0.8737049,0.79561396 z"
     id="path18929"
     style="fill:#00000f;fill-opacity:0.378125;fill-rule:evenodd;stroke:none;stroke-width:1pt;stroke-linecap:butt;stroke-linejoin:miter;stroke-opacity:1" />
  <path
     d="M 0.75386563,0.63373121 L 0.78119762,0.72623564 L 0.78960746,0.75146326 L 0.81063205,0.72203262 L 0.75386563,0.63373121 z"
     id="path18930"
     style="fill:#000000;fill-opacity:0.653125;fill-rule:evenodd;stroke:none;stroke-width:1pt;stroke-linecap:butt;stroke-linejoin:miter;stroke-opacity:1" />
  <path
     d="M 0.022217219,0.24266987 L 0.14836386,0.60429107 L 0.13785156,0.60639258 L 0.022217219,0.24266987 z"
     id="path18931"
     style="fill:#000000;fill-opacity:0.584375;fill-rule:evenodd;stroke:none;stroke-width:1pt;stroke-linecap:butt;stroke-linejoin:miter;stroke-opacity:1" />
</svg>
