<?xml version="1.0" encoding="UTF-8" standalone="no"?>
<!-- Created with Inkscape (http://www.inkscape.org/) -->
<svg
   xmlns:svg="http://www.w3.org/2000/svg"
   xmlns="http://www.w3.org/2000/svg"
   xmlns:xlink="http://www.w3.org/1999/xlink"
   version="1.0"
   width="100"
   height="100"
   viewBox = "0 0 1 1"
   id="svg2180">
  <defs
     id="defs2182">
    <linearGradient
       id="linearGradient4437">
      <stop
         id="stop4439"
         style="stop-color:#ffffff;stop-opacity:0.85624999"
         offset="0" />
      <stop
         id="stop4441"
         style="stop-color:#ffffff;stop-opacity:0"
         offset="1" />
    </linearGradient>
    <radialGradient
       cx="136.1499"
       cy="504.90085"
       r="406.37308"
       fx="136.1499"
       fy="504.90085"
       id="radialGradient24418"
       xlink:href="#linearGradient4437"
       gradientUnits="userSpaceOnUse" />
    <linearGradient
       id="linearGradient5142">
      <stop
         id="stop5144"
         style="stop-color:#bfd1eb;stop-opacity:1"
         offset="0" />
      <stop
         id="stop5150"
         style="stop-color:#315c9b;stop-opacity:1"
         offset="0.61538464" />
      <stop
         id="stop5146"
         style="stop-color:#11233a;stop-opacity:1"
         offset="1" />
    </linearGradient>
    <radialGradient
       cx="209.15753"
       cy="407.22339"
       r="55.703125"
       fx="209.15753"
       fy="407.22339"
       id="radialGradient24416"
       xlink:href="#linearGradient5142"
       gradientUnits="userSpaceOnUse"
       gradientTransform="matrix(2.971416,0.433793,-0.445445,3.041429,176.2001,-314.492)" />
    <linearGradient
       id="linearGradient13206">
      <stop
         id="stop13208"
         style="stop-color:#f2c41f;stop-opacity:1"
         offset="0" />
      <stop
         id="stop2186"
         style="stop-color:#b9380a;stop-opacity:1"
         offset="1" />
    </linearGradient>
    <radialGradient
       cx="107.20115"
       cy="495.30679"
       r="405.35715"
       fx="107.20115"
       fy="495.30679"
       id="radialGradient24414"
       xlink:href="#linearGradient13206"
       gradientUnits="userSpaceOnUse"
       gradientTransform="matrix(1.150346,0,0,1.150346,-16.1173,-74.46758)" />
    <linearGradient
       id="linearGradient6339">
      <stop
         id="stop6341"
         style="stop-color:#6e9f4b;stop-opacity:1"
         offset="0" />
      <stop
         id="stop12671"
         style="stop-color:#425f2d;stop-opacity:1"
         offset="0.5" />
      <stop
         id="stop6347"
         style="stop-color:#2a3d1d;stop-opacity:1"
         offset="1" />
    </linearGradient>
    <radialGradient
       cx="406.20645"
       cy="1189.2123"
       r="88.938736"
       fx="406.20645"
       fy="1189.2123"
       id="radialGradient24412"
       xlink:href="#linearGradient6339"
       gradientUnits="userSpaceOnUse"
       gradientTransform="matrix(1.454579,-0.103027,0.118439,1.802414,-328.325,-918.4274)" />
  </defs>
  <g
     transform="translate(-9.4065395,-775.95721)"
     id="layer1">
    <g
       transform="matrix(1.0695395e-2,2.315543e-3,-2.030418e-3,9.377262e-3,-1.3298312,771.04477)"
       id="g43078"
       style="opacity:1">
      <path
         d="M 533.63243,1211.5447 A 88.938736,110.2067 0 1 1 355.75496,1211.5447 A 88.938736,110.2067 0 1 1 533.63243,1211.5447 z"
         transform="matrix(0.479653,3.866152e-3,-3.724469e-3,0.461999,899.3227,-259.237)"
         id="path5452"
         style="fill:url(#radialGradient24412);fill-opacity:1;fill-rule:evenodd;stroke:none;stroke-width:1px;stroke-linecap:butt;stroke-linejoin:miter;marker:none;marker-start:none;marker-mid:none;marker-end:none;stroke-miterlimit:4;stroke-dasharray:none;stroke-dashoffset:0;stroke-opacity:1;visibility:visible;display:inline;overflow:visible" />
      <g
         transform="matrix(0.278956,0,0,0.316467,929.849,95.75408)"
         id="g22959"
         style="stroke:none;stroke-width:2.32346082;stroke-miterlimit:4;stroke-dasharray:none;stroke-opacity:1;display:inline">
        <g
           transform="matrix(0.691474,0,0,0.691474,194.6521,226.2037)"
           id="g3528"
           style="stroke:none;stroke-width:3.36015654;stroke-miterlimit:4;stroke-dasharray:none;stroke-opacity:1;display:inline">
          <path
             d="M 654.28571,648.07648 A 392.85715,392.85715 0 1 1 -131.42859,648.07648 A 392.85715,392.85715 0 1 1 654.28571,648.07648 z"
             transform="matrix(0.595377,0,0,0.595377,484.3515,236.1627)"
             id="path1307"
             style="fill:url(#radialGradient24414);fill-opacity:1;fill-rule:evenodd;stroke:none;stroke-width:5.6437459;stroke-linecap:round;stroke-linejoin:round;marker:none;marker-start:none;marker-mid:none;marker-end:none;stroke-miterlimit:4;stroke-dasharray:none;stroke-dashoffset:0;stroke-opacity:1;visibility:visible;display:inline;overflow:visible" />
          <g
             transform="matrix(1.649352,0,0,1.652007,-456.9646,-1157.083)"
             id="layer7"
             style="stroke:none;stroke-width:2.03562093;stroke-miterlimit:4;stroke-dasharray:none;stroke-opacity:1;display:inline">
            <path
               d="M 685.79834,936.8631 C 653.03026,931.92963 618.68667,939.24493 590.64085,956.85157 C 597.34176,961.60345 624.1207,971.50839 610.69153,978.09767 C 603.28854,991.12954 579.29289,1006.3547 564.40154,996.78312 C 549.54509,1002.3712 529.82631,1021.3838 535.11137,1036.6614 C 555.13845,1043.2324 557.88378,1055.6532 553.89424,1058.3999 C 531.82791,1071.1916 526.31638,1107.813 532.85275,1127.0412 C 554.55686,1187.5886 621.14871,1227.2207 684.72595,1217.2075 C 734.97953,1210.6202 779.93672,1174.735 797.52117,1127.2026 C 801.6056,1092.3091 772.49697,1158.2732 773.01354,1124.2521 C 774.66797,1103.6089 753.60965,1112.9628 743.34456,1103.5296 C 729.44781,1109.4294 706.60308,1079.6425 705.91986,1108.032 C 710.73339,1121.8293 748.36292,1098.9689 727.36799,1122.1261 C 713.66585,1138.4762 678.84059,1173.8963 678.22945,1195.5927 C 672.68423,1226.3016 645.71393,1195.9046 636.76564,1183.6298 C 633.38806,1161.8582 645.16378,1127.2134 627.88011,1113.5258 C 607.1832,1108.5799 589.62417,1103.2784 586.09646,1078.3772 C 584.4918,1060.7409 599.36153,1037.834 618.00337,1037.4595 C 647.40997,1026.0744 649.70476,1063.5388 674.1378,1068.957 C 683.32393,1062.4547 704.66995,1063.8696 708.14263,1055.2558 C 692.58317,1049.2927 731.23711,1045.6958 710.43764,1035.3498 C 698.02923,1034.4293 688.06882,1044.1757 692.66929,1054.879 C 668.09018,1055.811 675.0405,1016.0842 650.00836,1024.1695 C 645.58215,1043.7554 611.82583,1023.4418 636.93716,1024.1558 C 646.0103,1022.1222 626.09522,1007.2581 637.60177,1011.4809 C 643.50072,1012.2936 664.59096,1009.2874 660.1777,1003.6285 C 672.44858,998.95422 677.09365,1023.6428 691.08641,1008.9251 C 701.34222,997.51103 690.83725,993.05084 679.86565,997.71894 C 674.17572,988.15164 707.36251,973.08665 720.10788,976.77182 C 725.97039,986.98344 740.6695,990.54835 740.55945,975.28718 C 749.78611,963.59043 780.17483,991.60897 761.10999,972.81243 C 740.39002,953.58864 713.7829,940.86481 685.79834,936.8631 z"
               id="path2495"
               style="fill:url(#radialGradient24416);fill-opacity:1;fill-rule:nonzero;stroke:none;stroke-width:2.03562093;stroke-linecap:round;stroke-linejoin:round;marker:none;marker-start:none;marker-mid:none;marker-end:none;stroke-miterlimit:4;stroke-dasharray:none;stroke-dashoffset:0;stroke-opacity:1;visibility:visible;display:inline;overflow:visible" />
          </g>
          <path
             d="M 654.28571,648.07648 A 392.85715,392.85715 0 1 1 -131.42859,648.07648 A 392.85715,392.85715 0 1 1 654.28571,648.07648 z"
             transform="matrix(0.595377,0,0,0.595377,484.3515,236.1627)"
             id="path2653"
             style="opacity:0.76025235;fill:url(#radialGradient24418);fill-opacity:1;fill-rule:evenodd;stroke:none;stroke-width:5.6437459;stroke-linecap:round;stroke-linejoin:round;marker:none;marker-start:none;marker-mid:none;marker-end:none;stroke-miterlimit:4;stroke-dasharray:none;stroke-dashoffset:0;stroke-opacity:1;visibility:visible;display:inline;overflow:visible" />
        </g>
      </g>
      <g
         transform="matrix(0.461631,3.658493e-3,-3.721198e-3,0.453853,776.2595,-251.8312)"
         id="g13579"
         style="opacity:0.41833813;fill:none;fill-opacity:1;stroke:#cccccc;stroke-width:1.84146285;stroke-miterlimit:4;stroke-dasharray:none;stroke-opacity:1;display:inline">
        <path
           d="M 729.28579,1110.8182 L 729.33723,1330.469"
           id="path13581"
           style="fill:none;fill-opacity:1;fill-rule:evenodd;stroke:#cccccc;stroke-width:1.84146285;stroke-linecap:round;stroke-linejoin:round;stroke-miterlimit:4;stroke-dasharray:none;stroke-opacity:1" />
        <path
           d="M 702.13652,1109.7713 C 680.25776,1179.5408 682.51349,1251.33 702.26934,1325.1348"
           id="path13583"
           style="fill:none;fill-opacity:1;fill-rule:evenodd;stroke:#cccccc;stroke-width:1.84146285;stroke-linecap:round;stroke-linejoin:round;stroke-miterlimit:4;stroke-dasharray:none;stroke-opacity:1;display:inline" />
        <path
           d="M 756.30133,1109.3909 C 778.26185,1179.4364 776.09752,1251.4757 756.44073,1325.5135"
           id="path13585"
           style="fill:none;fill-opacity:1;fill-rule:evenodd;stroke:#cccccc;stroke-width:1.84146285;stroke-linecap:round;stroke-linejoin:round;stroke-miterlimit:4;stroke-dasharray:none;stroke-opacity:1;display:inline" />
        <path
           d="M 672.38158,1127.6022 C 634.78031,1186.8254 637.73806,1246.2139 673.12083,1308.8381"
           id="path13587"
           style="fill:none;fill-opacity:1;fill-rule:evenodd;stroke:#cccccc;stroke-width:1.84146285;stroke-linecap:round;stroke-linejoin:round;stroke-miterlimit:4;stroke-dasharray:none;stroke-opacity:1;display:inline" />
        <path
           d="M 786.223,1127.9786 C 823.81201,1187.701 820.81663,1245.3028 785.45381,1308.4495"
           id="path13589"
           style="fill:none;fill-opacity:1;fill-rule:evenodd;stroke:#cccccc;stroke-width:1.84146285;stroke-linecap:round;stroke-linejoin:round;stroke-miterlimit:4;stroke-dasharray:none;stroke-opacity:1;display:inline" />
        <g
           transform="matrix(0,1.124456,-0.877527,0,1797.633,397.4031)"
           id="g13591"
           style="fill:none;fill-opacity:1;stroke:#cccccc;stroke-width:1.85379398;stroke-miterlimit:4;stroke-dasharray:none;stroke-opacity:1">
          <path
             d="M 729.2615,1108.2592 L 729.31008,1326.6461"
             id="path13593"
             style="fill:none;fill-opacity:1;fill-rule:evenodd;stroke:#cccccc;stroke-width:1.85379398;stroke-linecap:round;stroke-linejoin:round;stroke-miterlimit:4;stroke-dasharray:none;stroke-opacity:1;display:inline" />
          <path
             d="M 702.19152,1112.6889 C 680.22914,1180.5707 682.46792,1250.4145 702.25497,1322.217"
             id="path13595"
             style="fill:none;fill-opacity:1;fill-rule:evenodd;stroke:#cccccc;stroke-width:1.85379398;stroke-linecap:round;stroke-linejoin:round;stroke-miterlimit:4;stroke-dasharray:none;stroke-opacity:1;display:inline" />
          <path
             d="M 754.23777,1110.5303 C 776.30235,1175.3956 774.50531,1256.2515 754.66659,1324.8418"
             id="path13597"
             style="fill:none;fill-opacity:1;fill-rule:evenodd;stroke:#cccccc;stroke-width:1.85379398;stroke-linecap:round;stroke-linejoin:round;stroke-miterlimit:4;stroke-dasharray:none;stroke-opacity:1;display:inline" />
          <path
             d="M 673.12083,1126.0672 C 635.51956,1185.2904 637.73806,1246.2139 673.12083,1308.8381"
             id="path13599"
             style="fill:none;fill-opacity:1;fill-rule:evenodd;stroke:#cccccc;stroke-width:1.85379398;stroke-linecap:round;stroke-linejoin:round;stroke-miterlimit:4;stroke-dasharray:none;stroke-opacity:1;display:inline" />
          <path
             d="M 785.45069,1126.0672 C 823.05196,1185.2904 820.83346,1246.2139 785.45069,1308.8381"
             id="path13601"
             style="fill:none;fill-opacity:1;fill-rule:evenodd;stroke:#cccccc;stroke-width:1.85379398;stroke-linecap:round;stroke-linejoin:round;stroke-miterlimit:4;stroke-dasharray:none;stroke-opacity:1;display:inline" />
        </g>
      </g>
      <g
         transform="matrix(0.461631,3.658493e-3,-3.721198e-3,0.453853,775.4166,-252.6742)"
         id="g6375"
         style="opacity:0.41833813;fill:none;fill-opacity:1;stroke:#a4a4a4;stroke-width:1.84146285;stroke-miterlimit:4;stroke-dasharray:none;stroke-opacity:1">
        <path
           d="M 729.28579,1110.8182 L 729.35357,1332.4961"
           id="path22979"
           style="fill:none;fill-opacity:1;fill-rule:evenodd;stroke:#a4a4a4;stroke-width:1.84146285;stroke-linecap:round;stroke-linejoin:round;stroke-miterlimit:4;stroke-dasharray:none;stroke-opacity:1" />
        <path
           d="M 702.13652,1109.7713 C 680.25776,1179.5408 682.51349,1251.33 702.26934,1325.1348"
           id="path6348"
           style="fill:none;fill-opacity:1;fill-rule:evenodd;stroke:#a4a4a4;stroke-width:1.84146285;stroke-linecap:round;stroke-linejoin:round;stroke-miterlimit:4;stroke-dasharray:none;stroke-opacity:1;display:inline" />
        <path
           d="M 756.30133,1109.3909 C 778.26185,1179.4364 776.29158,1252.2386 756.63479,1326.2764"
           id="path6350"
           style="fill:none;fill-opacity:1;fill-rule:evenodd;stroke:#a4a4a4;stroke-width:1.84146285;stroke-linecap:round;stroke-linejoin:round;stroke-miterlimit:4;stroke-dasharray:none;stroke-opacity:1;display:inline" />
        <path
           d="M 672.38158,1127.6022 C 634.78031,1186.8254 637.73806,1246.2139 673.12083,1308.8381"
           id="path6352"
           style="fill:none;fill-opacity:1;fill-rule:evenodd;stroke:#a4a4a4;stroke-width:1.84146285;stroke-linecap:round;stroke-linejoin:round;stroke-miterlimit:4;stroke-dasharray:none;stroke-opacity:1;display:inline" />
        <path
           d="M 786.223,1127.9786 C 823.81201,1187.701 820.83204,1247.2139 785.46922,1310.3606"
           id="path6354"
           style="fill:none;fill-opacity:1;fill-rule:evenodd;stroke:#a4a4a4;stroke-width:1.84146285;stroke-linecap:round;stroke-linejoin:round;stroke-miterlimit:4;stroke-dasharray:none;stroke-opacity:1;display:inline" />
        <g
           transform="matrix(0,1.124456,-0.877527,0,1797.633,397.4031)"
           id="g6367"
           style="fill:none;fill-opacity:1;stroke:#a4a4a4;stroke-width:1.85379398;stroke-miterlimit:4;stroke-dasharray:none;stroke-opacity:1">
          <path
             d="M 729.2615,1108.2592 L 729.31008,1326.6461"
             id="path6356"
             style="fill:none;fill-opacity:1;fill-rule:evenodd;stroke:#a4a4a4;stroke-width:1.85379398;stroke-linecap:round;stroke-linejoin:round;stroke-miterlimit:4;stroke-dasharray:none;stroke-opacity:1;display:inline" />
          <path
             d="M 702.19152,1112.6889 C 680.22914,1180.5707 682.46792,1250.4145 702.25497,1322.217"
             id="path6358"
             style="fill:none;fill-opacity:1;fill-rule:evenodd;stroke:#a4a4a4;stroke-width:1.85379398;stroke-linecap:round;stroke-linejoin:round;stroke-miterlimit:4;stroke-dasharray:none;stroke-opacity:1;display:inline" />
          <path
             d="M 754.91357,1109.8809 C 776.97815,1174.7462 774.50531,1256.2515 754.66659,1324.8418"
             id="path6360"
             style="fill:none;fill-opacity:1;fill-rule:evenodd;stroke:#a4a4a4;stroke-width:1.85379398;stroke-linecap:round;stroke-linejoin:round;stroke-miterlimit:4;stroke-dasharray:none;stroke-opacity:1;display:inline" />
          <path
             d="M 673.12083,1126.0672 C 635.51956,1185.2904 637.73806,1246.2139 673.12083,1308.8381"
             id="path6362"
             style="fill:none;fill-opacity:1;fill-rule:evenodd;stroke:#a4a4a4;stroke-width:1.85379398;stroke-linecap:round;stroke-linejoin:round;stroke-miterlimit:4;stroke-dasharray:none;stroke-opacity:1;display:inline" />
          <path
             d="M 785.78388,1124.9931 C 823.38515,1184.2163 820.83346,1246.2139 785.45069,1308.8381"
             id="path6364"
             style="fill:none;fill-opacity:1;fill-rule:evenodd;stroke:#a4a4a4;stroke-width:1.85379398;stroke-linecap:round;stroke-linejoin:round;stroke-miterlimit:4;stroke-dasharray:none;stroke-opacity:1;display:inline" />
        </g>
      </g>
      <path
         d="M 1107.6009,251.92564 C 1107.5014,251.92564 1107.4017,251.93373 1107.3023,251.93447 C 1106.9719,251.93689 1106.6389,251.94157 1106.3102,251.95207 C 1082.0006,252.72848 1062.4794,275.42026 1062.4794,303.27891 C 1062.4794,327.05227 1076.7003,347.06339 1095.9759,352.90541 C 1096.1551,352.95972 1096.3314,353.02094 1096.5115,353.07281 C 1102.1265,354.76073 1108.0244,355.21018 1113.8436,354.16523 C 1117.7483,353.58168 1121.5512,352.35528 1125.1525,350.5972 C 1125.2371,350.55644 1125.3228,350.51521 1125.4071,350.47386 C 1125.4716,350.44185 1125.536,350.40933 1125.6003,350.37696 C 1125.9679,350.1945 1126.3354,350.00631 1126.6978,349.8131 C 1126.7244,349.79894 1126.7503,349.7833 1126.7768,349.76906 C 1126.7918,349.76096 1126.8058,349.75076 1126.8207,349.74263 C 1142.1199,341.52194 1152.7136,323.80315 1152.7136,303.27891 C 1152.7136,288.34324 1147.0983,274.89752 1138.1472,265.5106 C 1137.9406,265.29389 1137.734,265.07982 1137.5238,264.86748 C 1137.3884,264.72973 1137.2568,264.58921 1137.1199,264.45341 C 1137.0443,264.37882 1136.9677,264.30719 1136.8917,264.23316 C 1136.6948,264.04054 1136.4944,263.84912 1136.2946,263.66052 C 1136.278,263.64492 1136.2585,263.63203 1136.2419,263.61646 C 1136.1904,263.56794 1136.1356,263.52374 1136.0839,263.47549 C 1135.5967,263.02116 1135.1036,262.57533 1134.6,262.1452 C 1134.5937,262.13982 1134.5887,262.13295 1134.5824,262.12758 C 1134.4706,262.03231 1134.3615,261.93977 1134.2488,261.84566 C 1134.0719,261.69761 1133.8921,261.55022 1133.7132,261.40518 C 1133.6631,261.36461 1133.6142,261.32215 1133.5639,261.28181 C 1133.318,261.08408 1133.0671,260.8924 1132.8176,260.70036 C 1132.6011,260.53381 1132.3871,260.36936 1132.1679,260.207 C 1132.0826,260.14379 1131.9989,260.08454 1131.9133,260.022 C 1131.6043,259.79634 1131.2963,259.57818 1130.9826,259.36126 C 1130.6752,259.14873 1130.3636,258.9398 1130.0519,258.73575 C 1130.0397,258.72777 1130.0289,258.71727 1130.0167,258.70931 C 1129.7132,258.51107 1129.4023,258.318 1129.0948,258.12785 C 1128.7743,257.92966 1128.4536,257.73568 1128.129,257.5464 C 1127.8062,257.3582 1127.481,257.17063 1127.1544,256.99138 C 1127.113,256.96866 1127.0729,256.94347 1127.0315,256.92089 C 1126.7433,256.76399 1126.4533,256.61268 1126.1622,256.46278 C 1125.8416,256.29763 1125.5204,256.14357 1125.1964,255.98703 C 1125.1812,255.97967 1125.1678,255.96796 1125.1525,255.9606 C 1125.0098,255.89185 1124.8657,255.82509 1124.7223,255.75798 C 1124.5266,255.66641 1124.3308,255.57329 1124.134,255.48486 C 1124.0692,255.45575 1124.0058,255.42555 1123.9408,255.39677 C 1123.6647,255.27439 1123.3849,255.16051 1123.1067,255.04436 C 1122.7882,254.91138 1122.4708,254.78144 1122.1497,254.65675 C 1122.1202,254.64529 1122.0913,254.63286 1122.0619,254.62149 C 1121.8958,254.55749 1121.7283,254.49834 1121.5614,254.43649 C 1121.3764,254.36791 1121.194,254.29966 1121.0083,254.23386 C 1120.9261,254.20475 1120.8448,254.17435 1120.7624,254.14575 C 1120.4912,254.05163 1120.2186,253.96085 1119.9458,253.87265 C 1119.6785,253.78616 1119.4074,253.69815 1119.1381,253.61715 C 1119.0473,253.58989 1118.9568,253.56447 1118.8659,253.53787 C 1118.6844,253.48466 1118.5039,253.43878 1118.3215,253.3881 C 1118.1421,253.33837 1117.9659,253.28549 1117.7859,253.23832 C 1117.6928,253.21382 1117.5983,253.19169 1117.5049,253.16785 C 1117.2336,253.09885 1116.9609,253.02832 1116.6884,252.96521 C 1116.6856,252.96457 1116.6824,252.96587 1116.6796,252.96521 C 1116.6123,252.94965 1116.545,252.93636 1116.4777,252.92117 C 1116.194,252.85714 1115.9107,252.79376 1115.626,252.73616 C 1115.6114,252.73322 1115.5967,252.73029 1115.5821,252.72735 C 1115.3956,252.6894 1115.2074,252.65696 1115.0202,252.62163 C 1114.7427,252.56929 1114.4651,252.51841 1114.186,252.47186 C 1113.9041,252.42347 1113.6257,252.38162 1113.3431,252.33971 C 1113.2994,252.33337 1113.2552,252.32829 1113.2114,252.32209 C 1112.879,252.274 1112.5437,252.22912 1112.2105,252.18994 C 1111.8304,252.14525 1111.4499,252.10856 1111.069,252.07541 C 1110.801,252.05217 1110.5306,252.03162 1110.2613,252.01374 C 1109.9699,251.99441 1109.6761,251.98271 1109.3833,251.9697 C 1109.3452,251.968 1109.3072,251.96247 1109.2691,251.96088 C 1109.0988,251.9541 1108.9302,251.94777 1108.7599,251.94327 C 1108.5665,251.93767 1108.3744,251.93726 1108.1804,251.93447 C 1107.9864,251.93165 1107.7954,251.92564 1107.6009,251.92564 z"
         id="path50675"
         style="fill:none;fill-opacity:1;fill-rule:evenodd;stroke:#808080;stroke-width:0.84432685;stroke-linecap:round;stroke-linejoin:round;marker:none;marker-start:none;marker-mid:none;marker-end:none;stroke-miterlimit:4;stroke-dasharray:none;stroke-dashoffset:0;stroke-opacity:1;visibility:visible;display:inline;overflow:visible" />
    </g>
  </g>
</svg>
