<?xml version="1.0" encoding="UTF-8" standalone="no"?>
<!-- Created with Inkscape (http://www.inkscape.org/) -->
<svg
   xmlns:dc="http://purl.org/dc/elements/1.1/"
   xmlns:cc="http://creativecommons.org/ns#"
   xmlns:rdf="http://www.w3.org/1999/02/22-rdf-syntax-ns#"
   xmlns:svg="http://www.w3.org/2000/svg"
   xmlns="http://www.w3.org/2000/svg"
   xmlns:sodipodi="http://sodipodi.sourceforge.net/DTD/sodipodi-0.dtd"
   xmlns:inkscape="http://www.inkscape.org/namespaces/inkscape"
   height="27.496063"
   id="svg1"
   inkscape:version="0.46"
   sodipodi:docbase="/home/nicu"
   sodipodi:docname="group.svg"
   sodipodi:version="0.32"
   width="40"
   inkscape:output_extension="org.inkscape.output.svg.inkscape"
   version="1.0">
  <sodipodi:namedview
     bordercolor="#666666"
     borderopacity="1.0"
     id="base"
     inkscape:cx="26.477107"
     inkscape:cy="34.676183"
     inkscape:pageopacity="0.0"
     inkscape:pageshadow="2"
     inkscape:window-height="710"
     inkscape:window-width="950"
     inkscape:window-x="101"
     inkscape:window-y="32"
     inkscape:zoom="7.9867624"
     pagecolor="#ffffff"
     showgrid="false"
     inkscape:current-layer="svg1" />
  <metadata
     id="metadata3">
    <rdf:RDF>
      <cc:Work
         rdf:about="">
        <dc:title>Clipart by Nicu Buculei - head1</dc:title>
        <dc:description />
        <dc:subject>
          <rdf:Bag>
            <rdf:li />
            <rdf:li>people</rdf:li>
          </rdf:Bag>
        </dc:subject>
        <dc:publisher>
          <cc:Agent
             rdf:about="http://www.openclipart.org">
            <dc:title>Nicu Buculei</dc:title>
          </cc:Agent>
        </dc:publisher>
        <dc:creator>
          <cc:Agent>
            <dc:title>Nicu Buculei</dc:title>
          </cc:Agent>
        </dc:creator>
        <dc:rights>
          <cc:Agent>
            <dc:title>Nicu Buculei</dc:title>
          </cc:Agent>
        </dc:rights>
        <dc:date />
        <dc:format>image/svg+xml</dc:format>
        <dc:type
           rdf:resource="http://purl.org/dc/dcmitype/StillImage" />
        <cc:license
           rdf:resource="http://web.resource.org/cc/PublicDomain" />
        <dc:language>en</dc:language>
      </cc:Work>
      <cc:License
         rdf:about="http://web.resource.org/cc/PublicDomain">
        <cc:permits
           rdf:resource="http://web.resource.org/cc/Reproduction" />
        <cc:permits
           rdf:resource="http://web.resource.org/cc/Distribution" />
        <cc:permits
           rdf:resource="http://web.resource.org/cc/DerivativeWorks" />
      </cc:License>
    </rdf:RDF>
  </metadata>
  <defs
     id="defs3">
    <inkscape:perspective
       sodipodi:type="inkscape:persp3d"
       inkscape:vp_x="0 : 50 : 1"
       inkscape:vp_y="0 : 1000 : 0"
       inkscape:vp_z="100 : 50 : 1"
       inkscape:persp3d-origin="50 : 33.333333 : 1"
       id="perspective41" />
  </defs>
  <path
     d="M 15.507406,1.6215012 C 13.220333,1.6215012 11.367622,3.1541182 11.367617,5.0374622 C 11.367617,6.3304172 12.275998,7.4175452 13.564499,7.9962672 C 12.870478,8.1311652 12.226406,8.3147512 11.621592,8.5423132 C 10.924271,8.1031972 10.090331,7.7930882 9.1453378,7.7930882 C 6.8582647,7.7930882 5.0055452,9.3257032 5.0055492,11.209048 C 5.0055492,12.504811 5.9093336,13.602958 7.202431,14.180553 C 5.4927948,14.513 3.9400051,15.091567 3.0245459,15.983774 C 1.0966377,18.615968 1.8150613,20.688642 1.7800696,21.06327 C 1.9533536,21.263043 3.0546045,22.029902 3.8753615,21.96488 C 3.8539666,21.524598 3.9287896,21.059665 3.9642526,20.580718 C 3.9920761,20.129118 3.9771871,19.897858 4.0277463,19.437831 C 4.1438635,18.537358 4.2690224,17.83779 4.2690224,17.83779 C 4.2221041,17.876426 4.1157232,18.637347 4.0277463,19.437831 C 3.9817261,19.794712 3.9935186,20.185463 3.9642526,20.580718 C 3.9321665,21.10156 3.8646621,21.727074 3.900759,21.96488 C 3.8927984,21.965677 3.8833749,21.964246 3.8753615,21.96488 C 3.8757515,21.972926 3.874947,21.982259 3.8753615,21.990278 C 3.9647199,23.481613 4.690588,26.908582 5.0055492,27.19676 C 7.6744664,27.590783 10.262039,27.550227 12.993056,27.336446 C 13.421001,27.302946 13.825752,27.316616 14.26293,27.272952 C 14.26293,27.272952 14.359521,26.269297 14.389917,25.977681 C 14.651678,25.079529 14.865639,24.006771 14.694687,23.006176 C 14.722506,22.724614 14.717289,22.737654 14.745482,22.447432 C 14.711287,21.955017 14.656306,21.677713 14.605795,21.253751 C 14.610302,21.253929 14.613987,21.266271 14.618495,21.266449 C 14.675974,21.809097 14.745482,22.447432 14.745482,22.447432 C 15.813688,22.260287 16.572589,22.076336 17.640794,21.45693 C 17.670325,21.42532 17.678237,21.309954 17.704288,21.253751 C 18.165303,21.233562 18.632121,21.212001 19.101149,21.177558 C 19.239433,21.6812 19.401567,22.362117 19.49481,22.447432 C 21.820581,22.790793 24.094582,22.785169 26.441019,22.650611 C 26.686685,23.841513 26.956162,24.894594 27.126752,25.050673 C 29.765033,25.440173 32.329443,25.409367 35.025367,25.203058 C 35.141432,25.202538 35.199005,25.19639 35.317438,25.190359 C 35.679179,25.160711 36.015719,25.163662 36.384133,25.126865 C 36.384133,25.126865 36.482215,24.146893 36.51112,23.86969 C 36.771344,22.98572 36.972997,21.919099 36.815889,20.910885 C 36.845659,20.609894 36.84915,20.625263 36.879383,20.314043 C 36.808742,19.296832 36.676394,18.544368 36.561914,17.850488 C 36.46609,17.192873 36.372099,16.470805 36.244446,16.085363 C 36.23508,16.062843 36.390813,16.813418 36.561914,17.850488 C 36.740513,19.076175 36.879383,20.314043 36.879383,20.314043 C 37.947589,20.126898 38.693786,19.930254 39.761997,19.310843 C 40.11195,18.936213 40.292182,16.798598 38.708001,13.888482 C 38.032542,12.647681 35.978219,11.975035 33.641205,11.79319 C 34.686309,11.173601 35.419029,10.216312 35.419029,9.0756612 C 35.419029,9.0672102 35.419102,9.0586982 35.419029,9.0502632 C 35.446608,8.9138872 35.494014,8.7344982 35.507919,8.6439032 C 35.423144,8.5865312 35.363072,8.5967662 35.292041,8.5677112 C 34.983703,6.9346542 33.335675,5.6596992 31.266541,5.6596992 C 29.551235,5.6596992 28.086175,6.5178622 27.456919,7.7422932 C 27.651773,7.3467602 27.774387,6.9126102 27.774387,6.4597202 C 27.774387,6.4511982 27.774465,6.4428302 27.774387,6.4343222 C 27.801358,6.3003112 27.84956,6.1173312 27.863279,6.0279632 C 27.776509,5.9692422 27.719801,5.9808592 27.6474,5.9517702 C 27.336678,4.3209992 25.701767,3.0564572 23.634599,3.0564582 C 21.347526,3.0564582 19.49481,4.5763762 19.49481,6.4597202 C 19.49481,7.0734572 19.734042,7.6254972 20.078952,8.1232552 C 19.402798,7.9431332 18.666808,7.8291602 17.88207,7.7676902 C 18.781422,7.2355262 19.385881,6.4394982 19.545605,5.4946162 C 19.605307,5.3034022 19.615507,5.1914482 19.647194,5.0374622 C 19.647194,5.0332182 19.647215,5.0290022 19.647194,5.0247622 C 19.675645,4.8850482 19.721917,4.6980222 19.736086,4.6057042 C 19.649317,4.5469842 19.592608,4.5586012 19.520208,4.5295122 C 19.211309,2.8969912 17.576078,1.6214992 15.507406,1.6215012 z M 27.444221,7.7930882 C 27.249367,8.1886192 27.126752,8.6227702 27.126752,9.0756612 C 27.126752,9.1619442 27.18259,9.2322542 27.190246,9.3169362 C 26.807442,9.2532662 26.416057,9.2090912 26.009263,9.1772502 C 26.619314,8.8138182 27.147086,8.3712592 27.444221,7.7930882 z"
     id="path1082"
     style="fill:#2f2f2f;fill-opacity:0.5;fill-rule:evenodd;stroke:none;stroke-width:2.24188995;stroke-linejoin:round" />
  <g
     id="g984"
     transform="matrix(0.4063597,0,0,0.4063597,-0.4930046,-6.7596658)">
    <path
       d="M 18.815381,66.311465 C 18.97203,64.68119 15.769036,55.67184 24.399078,44.217288 C 37.415368,31.884895 77.966373,31.743657 85.05778,44.40763 C 92.149187,57.071603 91.37708,66.40116 89.810561,68.031441 C 85.02888,70.726921 81.657068,71.541315 76.875385,72.35571 C 76.875385,72.35571 75.69771,58.800506 74.061235,53.996931 C 73.991268,53.83337 76.086553,61.317549 76.875385,72.360173 C 75.784402,83.277395 74.693413,93.316769 74.693413,93.316769 C 60.247656,94.719369 47.055114,94.993311 33.235956,93.009952 C 31.826092,91.755891 28.569868,76.850028 28.169873,70.360166 C 27.769878,62.867061 29.963002,52.268028 29.963002,52.268028 C 29.49305,52.644242 27.78103,66.766013 28.326527,70.25952 C 24.64242,70.617881 19.59864,67.189306 18.815381,66.311465 z"
       id="path884"
       sodipodi:nodetypes="ccccccccccccc"
       style="fill:#f9c04e;fill-rule:evenodd;stroke:#2f2f2f;stroke-width:2.24188995;stroke-linejoin:round;stroke-dasharray:none"
       transform="matrix(0.549747,0,0,0.565496,27.3958,15.9051)" />
    <path
       d="M 70.32947,23.44657 C 70.32947,31.642344 62.020523,38.293988 51.782713,38.293988 C 41.544909,38.293988 33.235956,31.642344 33.235956,23.44657 C 33.235956,15.250797 41.544909,8.599152 51.782713,8.599152 C 62.020523,8.599152 70.32947,15.250797 70.32947,23.44657 z"
       id="path885"
       style="fill:#f9c04e;fill-rule:evenodd;stroke:#2f2f2f;stroke-width:2.24188995;stroke-linejoin:round;stroke-dasharray:none"
       transform="matrix(0.549747,0,0,0.565496,27.3958,15.9051)" />
    <path
       d="M 51.511942,9.7194887 C 43.435157,7.0272269 24.409841,21.026988 39.486506,33.590876 C 48.640196,31.796035 31.050752,17.257821 51.511942,9.7194887 z"
       id="path886"
       sodipodi:nodetypes="ccc"
       style="fill:#ffffff;fill-opacity:0.25;fill-rule:evenodd;stroke-width:1pt"
       transform="matrix(0.549747,0,0,0.565496,27.3958,15.9051)" />
    <path
       d="M 42.178768,37.180559 C 41.281348,37.001075 29.255912,39.154884 24.948292,45.07786 C 21.35861,47.231669 17.948412,57.462265 19.384285,65.718533 C 21.179126,67.154406 24.589324,69.4877 25.486745,68.949248 C 30.5123,58.359684 13.640793,47.411153 42.178768,37.180559 z"
       id="path887"
       sodipodi:nodetypes="ccccc"
       style="fill:#ffffff;fill-opacity:0.25;fill-rule:evenodd;stroke-width:1pt"
       transform="matrix(0.549747,0,0,0.565496,27.3958,15.9051)" />
    <path
       d="M 30.153332,55.12897 C 26.563649,66.077501 29.973848,85.641271 33.922499,92.102698 C 37.871149,93.359087 43.435157,93.89754 44.691545,93.538572 C 45.76845,84.384881 29.794364,85.64127 30.153332,55.12897 z"
       id="path888"
       sodipodi:nodetypes="cccc"
       style="fill:#ffffff;fill-opacity:0.25;fill-rule:evenodd;stroke-width:1pt"
       transform="matrix(0.549747,0,0,0.565496,27.3958,15.9051)" />
    <path
       d="M 52.588846,37.539527 C 67.844996,33.411393 63.896346,17.078338 70.716742,21.56544 C 70.17829,24.975638 68.02448,37.001075 52.588846,37.539527 z"
       id="path889"
       sodipodi:nodetypes="ccc"
       style="fill-opacity:0.25;fill-rule:evenodd;stroke-width:1pt"
       transform="matrix(0.549747,0,0,0.565496,27.3958,15.9051)" />
    <path
       d="M 81.306305,70.564605 C 81.306305,70.564605 89.562574,68.949248 89.921543,67.333891 C 91.895869,61.051946 86.511345,46.154765 83.998567,43.641987 C 71.793647,39.334368 97.280392,68.590279 81.306305,70.564605 z"
       id="path890"
       sodipodi:nodetypes="cccc"
       style="fill-opacity:0.25;fill-rule:evenodd;stroke-width:1pt"
       transform="matrix(0.549747,0,0,0.565496,27.3958,15.9051)" />
    <path
       d="M 64.973251,93.538572 C 64.973251,93.538572 72.870552,94.077024 73.767972,92.641151 C 74.665393,91.205278 78.793528,78.64139 76.28075,72.53893 C 68.02448,65.718534 79.33198,93.359088 64.973251,93.538572 z"
       id="path891"
       sodipodi:nodetypes="cccc"
       style="fill-opacity:0.23999999;fill-rule:evenodd;stroke-width:1pt"
       transform="matrix(0.549747,0,0,0.565496,27.3958,15.9051)" />
    <path
       d="M 18.815381,66.311465 C 18.97203,64.68119 15.769036,55.67184 24.399078,44.217288 C 37.415368,31.884895 77.966373,31.743657 85.05778,44.40763 C 92.149187,57.071603 91.37708,66.40116 89.810561,68.031441 C 85.02888,70.726921 81.657068,71.541315 76.875385,72.35571 C 76.875385,72.35571 75.69771,58.800506 74.061235,53.996931 C 73.991268,53.83337 76.086553,61.317549 76.875385,72.360173 C 75.784402,83.277395 74.693413,93.316769 74.693413,93.316769 C 60.247656,94.719369 47.055114,94.993311 33.235956,93.009952 C 31.826092,91.755891 28.569868,76.850028 28.169873,70.360166 C 27.769878,62.867061 29.963002,52.268028 29.963002,52.268028 C 29.49305,52.644242 27.78103,66.766013 28.326527,70.25952 C 24.64242,70.617881 19.59864,67.189306 18.815381,66.311465 z"
       id="path828"
       sodipodi:nodetypes="ccccccccccccc"
       style="fill:#bc4ef9;fill-rule:evenodd;stroke:#2f2f2f;stroke-width:2.24188995;stroke-linejoin:round;stroke-dasharray:none"
       transform="matrix(0.549747,0,0,0.565496,46.1967,22.3252)" />
    <path
       d="M 70.32947,23.44657 C 70.32947,31.642344 62.020523,38.293988 51.782713,38.293988 C 41.544909,38.293988 33.235956,31.642344 33.235956,23.44657 C 33.235956,15.250797 41.544909,8.599152 51.782713,8.599152 C 62.020523,8.599152 70.32947,15.250797 70.32947,23.44657 z"
       id="path827"
       style="fill:#bc4ef9;fill-rule:evenodd;stroke:#2f2f2f;stroke-width:2.24188995;stroke-linejoin:round;stroke-dasharray:none"
       transform="matrix(0.549747,0,0,0.565496,46.1967,22.3252)" />
    <path
       d="M 51.511942,9.7194887 C 43.435157,7.0272269 24.409841,21.026988 39.486506,33.590876 C 48.640196,31.796035 31.050752,17.257821 51.511942,9.7194887 z"
       id="path830"
       sodipodi:nodetypes="ccc"
       style="fill:#ffffff;fill-opacity:0.25;fill-rule:evenodd;stroke-width:1pt"
       transform="matrix(0.549747,0,0,0.565496,46.1967,22.3252)" />
    <path
       d="M 42.178768,37.180559 C 41.281348,37.001075 29.255912,39.154884 24.948292,45.07786 C 21.35861,47.231669 17.948412,57.462265 19.384285,65.718533 C 21.179126,67.154406 24.589324,69.4877 25.486745,68.949248 C 30.5123,58.359684 13.640793,47.411153 42.178768,37.180559 z"
       id="path831"
       sodipodi:nodetypes="ccccc"
       style="fill:#ffffff;fill-opacity:0.25;fill-rule:evenodd;stroke-width:1pt"
       transform="matrix(0.549747,0,0,0.565496,46.1967,22.3252)" />
    <path
       d="M 30.153332,55.12897 C 26.563649,66.077501 29.973848,85.641271 33.922499,92.102698 C 37.871149,93.359087 43.435157,93.89754 44.691545,93.538572 C 45.76845,84.384881 29.794364,85.64127 30.153332,55.12897 z"
       id="path832"
       sodipodi:nodetypes="cccc"
       style="fill:#ffffff;fill-opacity:0.25;fill-rule:evenodd;stroke-width:1pt"
       transform="matrix(0.549747,0,0,0.565496,46.1967,22.3252)" />
    <path
       d="M 52.588846,37.539527 C 67.844996,33.411393 63.896346,17.078338 70.716742,21.56544 C 70.17829,24.975638 68.02448,37.001075 52.588846,37.539527 z"
       id="path833"
       sodipodi:nodetypes="ccc"
       style="fill-opacity:0.25;fill-rule:evenodd;stroke-width:1pt"
       transform="matrix(0.549747,0,0,0.565496,46.1967,22.3252)" />
    <path
       d="M 81.306305,70.564605 C 81.306305,70.564605 89.562574,68.949248 89.921543,67.333891 C 91.895869,61.051946 86.511345,46.154765 83.998567,43.641987 C 71.793647,39.334368 97.280392,68.590279 81.306305,70.564605 z"
       id="path834"
       sodipodi:nodetypes="cccc"
       style="fill-opacity:0.25;fill-rule:evenodd;stroke-width:1pt"
       transform="matrix(0.549747,0,0,0.565496,46.1967,22.3252)" />
    <path
       d="M 64.973251,93.538572 C 64.973251,93.538572 72.870552,94.077024 73.767972,92.641151 C 74.665393,91.205278 78.793528,78.64139 76.28075,72.53893 C 68.02448,65.718534 79.33198,93.359088 64.973251,93.538572 z"
       id="path835"
       sodipodi:nodetypes="cccc"
       style="fill-opacity:0.23999999;fill-rule:evenodd;stroke-width:1pt"
       transform="matrix(0.549747,0,0,0.565496,46.1967,22.3252)" />
    <path
       d="M 18.815381,66.311465 C 18.97203,64.68119 15.769036,55.67184 24.399078,44.217288 C 37.415368,31.884895 77.966373,31.743657 85.05778,44.40763 C 92.149187,57.071603 91.37708,66.40116 89.810561,68.031441 C 85.02888,70.726921 81.657068,71.541315 76.875385,72.35571 C 76.875385,72.35571 75.69771,58.800506 74.061235,53.996931 C 73.991268,53.83337 76.086553,61.317549 76.875385,72.360173 C 75.784402,83.277395 74.693413,93.316769 74.693413,93.316769 C 60.247656,94.719369 47.055114,94.993311 33.235956,93.009952 C 31.826092,91.755891 28.569868,76.850028 28.169873,70.360166 C 27.769878,62.867061 29.963002,52.268028 29.963002,52.268028 C 29.49305,52.644242 27.78103,66.766013 28.326527,70.25952 C 24.64242,70.617881 19.59864,67.189306 18.815381,66.311465 z"
       id="path875"
       sodipodi:nodetypes="ccccccccccccc"
       style="fill:#04e904;fill-rule:evenodd;stroke:#2f2f2f;stroke-width:2.24188995;stroke-linejoin:round;stroke-dasharray:none"
       transform="matrix(0.549747,0,0,0.565496,7.40752,12.3969)" />
    <path
       d="M 70.32947,23.44657 C 70.32947,31.642344 62.020523,38.293988 51.782713,38.293988 C 41.544909,38.293988 33.235956,31.642344 33.235956,23.44657 C 33.235956,15.250797 41.544909,8.599152 51.782713,8.599152 C 62.020523,8.599152 70.32947,15.250797 70.32947,23.44657 z"
       id="path876"
       style="fill:#04e904;fill-rule:evenodd;stroke:#2f2f2f;stroke-width:2.24188995;stroke-linejoin:round;stroke-dasharray:none"
       transform="matrix(0.549747,0,0,0.565496,7.40752,12.3969)" />
    <path
       d="M 51.511942,9.7194887 C 43.435157,7.0272269 24.409841,21.026988 39.486506,33.590876 C 48.640196,31.796035 31.050752,17.257821 51.511942,9.7194887 z"
       id="path877"
       sodipodi:nodetypes="ccc"
       style="fill:#ffffff;fill-opacity:0.25;fill-rule:evenodd;stroke-width:1pt"
       transform="matrix(0.549747,0,0,0.565496,7.40752,12.3969)" />
    <path
       d="M 42.178768,37.180559 C 41.281348,37.001075 29.255912,39.154884 24.948292,45.07786 C 21.35861,47.231669 17.948412,57.462265 19.384285,65.718533 C 21.179126,67.154406 24.589324,69.4877 25.486745,68.949248 C 30.5123,58.359684 13.640793,47.411153 42.178768,37.180559 z"
       id="path878"
       sodipodi:nodetypes="ccccc"
       style="fill:#ffffff;fill-opacity:0.25;fill-rule:evenodd;stroke-width:1pt"
       transform="matrix(0.549747,0,0,0.565496,7.40752,12.3969)" />
    <path
       d="M 30.153332,55.12897 C 26.563649,66.077501 29.973848,85.641271 33.922499,92.102698 C 37.871149,93.359087 43.435157,93.89754 44.691545,93.538572 C 45.76845,84.384881 29.794364,85.64127 30.153332,55.12897 z"
       id="path879"
       sodipodi:nodetypes="cccc"
       style="fill:#ffffff;fill-opacity:0.25;fill-rule:evenodd;stroke-width:1pt"
       transform="matrix(0.549747,0,0,0.565496,7.40752,12.3969)" />
    <path
       d="M 52.588846,37.539527 C 67.844996,33.411393 63.896346,17.078338 70.716742,21.56544 C 70.17829,24.975638 68.02448,37.001075 52.588846,37.539527 z"
       id="path880"
       sodipodi:nodetypes="ccc"
       style="fill-opacity:0.25;fill-rule:evenodd;stroke-width:1pt"
       transform="matrix(0.549747,0,0,0.565496,7.40752,12.3969)" />
    <path
       d="M 81.306305,70.564605 C 81.306305,70.564605 89.562574,68.949248 89.921543,67.333891 C 91.895869,61.051946 86.511345,46.154765 83.998567,43.641987 C 71.793647,39.334368 97.280392,68.590279 81.306305,70.564605 z"
       id="path881"
       sodipodi:nodetypes="cccc"
       style="fill-opacity:0.25;fill-rule:evenodd;stroke-width:1pt"
       transform="matrix(0.549747,0,0,0.565496,7.40752,12.3969)" />
    <path
       d="M 64.973251,93.538572 C 64.973251,93.538572 72.870552,94.077024 73.767972,92.641151 C 74.665393,91.205278 78.793528,78.64139 76.28075,72.53893 C 68.02448,65.718534 79.33198,93.359088 64.973251,93.538572 z"
       id="path882"
       sodipodi:nodetypes="cccc"
       style="fill-opacity:0.23999999;fill-rule:evenodd;stroke-width:1pt"
       transform="matrix(0.549747,0,0,0.565496,7.40752,12.3969)" />
    <path
       d="M 18.815381,66.311465 C 18.97203,64.68119 15.769036,55.67184 24.399078,44.217288 C 37.415368,31.884895 77.966373,31.743657 85.05778,44.40763 C 92.149187,57.071603 91.37708,66.40116 89.810561,68.031441 C 85.02888,70.726921 81.657068,71.541315 76.875385,72.35571 C 76.875385,72.35571 75.69771,58.800506 74.061235,53.996931 C 73.991268,53.83337 76.086553,61.317549 76.875385,72.360173 C 75.784402,83.277395 74.693413,93.316769 74.693413,93.316769 C 60.247656,94.719369 47.055114,94.993311 33.235956,93.009952 C 31.826092,91.755891 28.569868,76.850028 28.169873,70.360166 C 27.769878,62.867061 29.963002,52.268028 29.963002,52.268028 C 29.49305,52.644242 27.78103,66.766013 28.326527,70.25952 C 24.64242,70.617881 19.59864,67.189306 18.815381,66.311465 z"
       id="path893"
       sodipodi:nodetypes="ccccccccccccc"
       style="fill:#4b4bf9;fill-rule:evenodd;stroke:#2f2f2f;stroke-width:2.24188995;stroke-linejoin:round;stroke-dasharray:none"
       transform="matrix(0.549747,0,0,0.565496,-8.25534,27.5906)" />
    <path
       d="M 70.32947,23.44657 C 70.32947,31.642344 62.020523,38.293988 51.782713,38.293988 C 41.544909,38.293988 33.235956,31.642344 33.235956,23.44657 C 33.235956,15.250797 41.544909,8.599152 51.782713,8.599152 C 62.020523,8.599152 70.32947,15.250797 70.32947,23.44657 z"
       id="path894"
       style="fill:#4b4bf9;fill-rule:evenodd;stroke:#2f2f2f;stroke-width:2.24188995;stroke-linejoin:round;stroke-dasharray:none"
       transform="matrix(0.549747,0,0,0.565496,-8.25534,27.5906)" />
    <path
       d="M 51.511942,9.7194887 C 43.435157,7.0272269 24.409841,21.026988 39.486506,33.590876 C 48.640196,31.796035 31.050752,17.257821 51.511942,9.7194887 z"
       id="path895"
       sodipodi:nodetypes="ccc"
       style="fill:#ffffff;fill-opacity:0.25;fill-rule:evenodd;stroke-width:1pt"
       transform="matrix(0.549747,0,0,0.565496,-8.25534,27.5906)" />
    <path
       d="M 42.178768,37.180559 C 41.281348,37.001075 29.255912,39.154884 24.948292,45.07786 C 21.35861,47.231669 17.948412,57.462265 19.384285,65.718533 C 21.179126,67.154406 24.589324,69.4877 25.486745,68.949248 C 30.5123,58.359684 13.640793,47.411153 42.178768,37.180559 z"
       id="path896"
       sodipodi:nodetypes="ccccc"
       style="fill:#ffffff;fill-opacity:0.25;fill-rule:evenodd;stroke-width:1pt"
       transform="matrix(0.549747,0,0,0.565496,-8.25534,27.5906)" />
    <path
       d="M 30.153332,55.12897 C 26.563649,66.077501 29.973848,85.641271 33.922499,92.102698 C 37.871149,93.359087 43.435157,93.89754 44.691545,93.538572 C 45.76845,84.384881 29.794364,85.64127 30.153332,55.12897 z"
       id="path897"
       sodipodi:nodetypes="cccc"
       style="fill:#ffffff;fill-opacity:0.25;fill-rule:evenodd;stroke-width:1pt"
       transform="matrix(0.549747,0,0,0.565496,-8.25534,27.5906)" />
    <path
       d="M 52.588846,37.539527 C 67.844996,33.411393 63.896346,17.078338 70.716742,21.56544 C 70.17829,24.975638 68.02448,37.001075 52.588846,37.539527 z"
       id="path898"
       sodipodi:nodetypes="ccc"
       style="fill-opacity:0.25;fill-rule:evenodd;stroke-width:1pt"
       transform="matrix(0.549747,0,0,0.565496,-8.25534,27.5906)" />
    <path
       d="M 81.306305,70.564605 C 81.306305,70.564605 89.562574,68.949248 89.921543,67.333891 C 91.895869,61.051946 86.511345,46.154765 83.998567,43.641987 C 71.793647,39.334368 97.280392,68.590279 81.306305,70.564605 z"
       id="path899"
       sodipodi:nodetypes="cccc"
       style="fill-opacity:0.25;fill-rule:evenodd;stroke-width:1pt"
       transform="matrix(0.549747,0,0,0.565496,-8.25534,27.5906)" />
    <path
       d="M 64.973251,93.538572 C 64.973251,93.538572 72.870552,94.077024 73.767972,92.641151 C 74.665393,91.205278 78.793528,78.64139 76.28075,72.53893 C 68.02448,65.718534 79.33198,93.359088 64.973251,93.538572 z"
       id="path900"
       sodipodi:nodetypes="cccc"
       style="fill-opacity:0.23999999;fill-rule:evenodd;stroke-width:1pt"
       transform="matrix(0.549747,0,0,0.565496,-8.25534,27.5906)" />
  </g>
</svg>
