<?xml version="1.0" encoding="UTF-8" standalone="no"?>
<!-- Created with Inkscape (http://www.inkscape.org/) -->
<svg
   xmlns:dc="http://purl.org/dc/elements/1.1/"
   xmlns:cc="http://creativecommons.org/ns#"
   xmlns:rdf="http://www.w3.org/1999/02/22-rdf-syntax-ns#"
   xmlns:svg="http://www.w3.org/2000/svg"
   xmlns="http://www.w3.org/2000/svg"
   xmlns:xlink="http://www.w3.org/1999/xlink"
   xmlns:sodipodi="http://sodipodi.sourceforge.net/DTD/sodipodi-0.dtd"
   xmlns:inkscape="http://www.inkscape.org/namespaces/inkscape"
   width="24.001774"
   height="24.002501"
   id="svg2"
   sodipodi:version="0.32"
   inkscape:version="0.46"
   sodipodi:docbase="C:\Documents and Settings\HP_Administrator\Desktop"
   sodipodi:docname="pen.svg"
   inkscape:output_extension="org.inkscape.output.svg.inkscape"
   version="1.0">
  <defs
     id="defs4">
    <inkscape:perspective
       sodipodi:type="inkscape:persp3d"
       inkscape:vp_x="0 : 208.57085 : 1"
       inkscape:vp_y="0 : 1000 : 0"
       inkscape:vp_z="433.88049 : 208.57085 : 1"
       inkscape:persp3d-origin="216.94025 : 139.04723 : 1"
       id="perspective38" />
    <linearGradient
       inkscape:collect="always"
       id="linearGradient4258">
      <stop
         style="stop-color: rgb(255, 255, 255); stop-opacity: 1;"
         offset="0"
         id="stop4260" />
      <stop
         style="stop-color: rgb(255, 255, 255); stop-opacity: 0;"
         offset="1"
         id="stop4262" />
    </linearGradient>
    <linearGradient
       id="linearGradient2274">
      <stop
         style="stop-color:#797b7d;stop-opacity:0.93220341;"
         offset="0"
         id="stop2276" />
      <stop
         style="stop-color: rgb(0, 0, 0); stop-opacity: 0;"
         offset="1"
         id="stop2278" />
    </linearGradient>
    <filter
       inkscape:collect="always"
       id="filter3923"
       x="-0.13721834"
       width="1.2744367"
       y="-0.11782103"
       height="1.2356421">
      <feGaussianBlur
         inkscape:collect="always"
         stdDeviation="7.2103154"
         id="feGaussianBlur3925" />
    </filter>
    <filter
       inkscape:collect="always"
       id="filter4585">
      <feGaussianBlur
         inkscape:collect="always"
         stdDeviation="6.0392157"
         id="feGaussianBlur4587" />
    </filter>
    <filter
       inkscape:collect="always"
       id="filter4887"
       x="-0.42352942"
       width="1.8470588"
       y="-0.18151261"
       height="1.3630252">
      <feGaussianBlur
         inkscape:collect="always"
         stdDeviation="12.176471"
         id="feGaussianBlur4889" />
    </filter>
    <filter
       inkscape:collect="always"
       id="filter5533"
       x="-0.33827791"
       width="1.6765558"
       y="-0.42438504"
       height="1.8487701">
      <feGaussianBlur
         inkscape:collect="always"
         stdDeviation="9.7254902"
         id="feGaussianBlur5535" />
    </filter>
    <linearGradient
       inkscape:collect="always"
       xlink:href="#linearGradient4258"
       id="linearGradient2462"
       gradientUnits="userSpaceOnUse"
       gradientTransform="matrix(3.1708813e-2,0,0,2.9421103e-2,404.22773,472.80027)"
       x1="375.89014"
       y1="320.78311"
       x2="145.91119"
       y2="158.06937" />
    <linearGradient
       inkscape:collect="always"
       xlink:href="#linearGradient4258"
       id="linearGradient2465"
       gradientUnits="userSpaceOnUse"
       gradientTransform="matrix(1.7359428e-2,0,0,1.67513e-2,408.22166,473.20303)"
       x1="375.89014"
       y1="320.78311"
       x2="145.91119"
       y2="158.06937" />
    <linearGradient
       inkscape:collect="always"
       xlink:href="#linearGradient4258"
       id="linearGradient2468"
       gradientUnits="userSpaceOnUse"
       gradientTransform="matrix(1.7359428e-2,0,0,1.67513e-2,409.11722,472.33363)"
       x1="375.89014"
       y1="320.78311"
       x2="145.91119"
       y2="158.06937" />
    <linearGradient
       inkscape:collect="always"
       xlink:href="#linearGradient4258"
       id="linearGradient2474"
       gradientUnits="userSpaceOnUse"
       gradientTransform="matrix(5.5972697e-2,0,0,6.3975274e-2,405.63913,470.41383)"
       x1="375.89014"
       y1="320.78311"
       x2="145.91119"
       y2="158.06937" />
    <linearGradient
       inkscape:collect="always"
       xlink:href="#linearGradient2274"
       id="linearGradient2502"
       gradientUnits="userSpaceOnUse"
       gradientTransform="matrix(5.5972697e-2,0,0,5.7960168e-2,405.18285,470.05059)"
       x1="78.079887"
       y1="119.25353"
       x2="21.149755"
       y2="71.336922" />
    <linearGradient
       inkscape:collect="always"
       xlink:href="#linearGradient4258"
       id="linearGradient2507"
       gradientUnits="userSpaceOnUse"
       gradientTransform="matrix(5.5972697e-2,0,0,5.7960168e-2,406.19035,470.51427)"
       x1="375.89014"
       y1="320.78311"
       x2="161.91119"
       y2="183.43677" />
  </defs>
  <sodipodi:namedview
     id="base"
     pagecolor="#ffffff"
     bordercolor="#666666"
     borderopacity="1.0"
     inkscape:pageopacity="0.0"
     inkscape:pageshadow="2"
     inkscape:zoom="31.621704"
     inkscape:cx="12.000884"
     inkscape:cy="12.001251"
     inkscape:document-units="px"
     inkscape:current-layer="layer1"
     inkscape:window-width="1400"
     inkscape:window-height="975"
     inkscape:window-x="0"
     inkscape:window-y="25"
     width="300.09px"
     height="300.35999px"
     showguides="true"
     inkscape:guide-bbox="true"
     showgrid="false" />
  <metadata
     id="metadata7">
    <rdf:RDF>
      <cc:Work
         rdf:about="">
        <dc:format>image/svg+xml</dc:format>
        <dc:type
           rdf:resource="http://purl.org/dc/dcmitype/StillImage" />
      </cc:Work>
    </rdf:RDF>
  </metadata>
  <g
     inkscape:label="Capa 1"
     inkscape:groupmode="layer"
     id="layer1"
     transform="translate(-405.16606,-470.09467)">
    <path
       style="fill:#efefff;fill-opacity:1;fill-rule:evenodd;stroke:#9999b4;stroke-width:0.39870434999999999;stroke-linecap:butt;stroke-linejoin:miter;stroke-miterlimit:4;stroke-dasharray:none;stroke-opacity:1"
       d="M 405.7934,470.29402 C 405.7934,470.29402 404.77125,489.63461 411.53493,493.89782 C 411.53493,493.89782 416.96817,485.07034 427.33424,487.12582 C 427.33424,487.12582 425.12869,481.34004 427.92239,478.37102 L 422.04093,470.45364 L 405.7934,470.29402 z"
       id="path2221"
       sodipodi:nodetypes="cccccc" />
    <path
       style="fill:none;fill-rule:evenodd;stroke:#999999;stroke-width:0.39870435;stroke-linecap:butt;stroke-linejoin:miter;stroke-miterlimit:4;stroke-dasharray:none;stroke-opacity:1"
       d="M 422.04093,470.37751 C 422.04093,470.37751 420.93816,475.9349 421.45279,479.51295 C 421.45279,479.51295 425.75621,476.55317 427.96176,478.38025"
       id="path2223"
       sodipodi:nodetypes="ccc" />
    <path
       style="fill:#f6f6ff;fill-opacity:1;fill-rule:evenodd;stroke:#9999b4;stroke-width:0.20504795000000001;stroke-linecap:butt;stroke-linejoin:miter;stroke-miterlimit:4;stroke-dasharray:none;stroke-opacity:1"
       d="M 416.68876,491.66416 C 416.68876,491.66416 420.79559,486.49638 428.1775,488.70345 L 429.06531,490.17138 C 429.06531,490.17138 421.05552,489.51092 420.0678,493.2791 C 420.0678,493.2791 416.84472,491.5565 416.68876,491.66416 z"
       id="path2228"
       sodipodi:nodetypes="ccccc" />
    <path
       sodipodi:nodetypes="cccccccc"
       style="fill:#f7f660;fill-opacity:1;fill-rule:evenodd;stroke:#646464;stroke-width:0.39870434999999999;stroke-linecap:butt;stroke-linejoin:miter;stroke-miterlimit:4;stroke-dasharray:none;stroke-opacity:1"
       d="M 410.34656,482.18989 L 415.38913,489.08027 C 415.38913,489.08027 421.62736,488.21897 424.17463,491.87949 L 424.85044,491.77183 L 422.82302,489.02644 L 421.99125,485.1506 L 414.86928,477.56041 L 410.34656,482.18989 z"
       id="path2230" />
    <path
       sodipodi:nodetypes="ccccc"
       style="fill:url(#linearGradient2507);fill-opacity:1;fill-rule:evenodd;stroke:#000000;stroke-width:0pt;stroke-linecap:butt;stroke-linejoin:miter;stroke-miterlimit:4;stroke-dasharray:none;stroke-opacity:1"
       d="M 413.23795,479.22551 L 418.47605,485.61428 L 419.72369,485.8296 L 413.80181,478.71197 L 413.23795,479.22551 z"
       id="path2242" />
    <path
       style="fill:#f0f11f;fill-opacity:1;fill-rule:evenodd;stroke:#646464;stroke-width:0.39870434999999999;stroke-linecap:butt;stroke-linejoin:miter;stroke-miterlimit:4;stroke-dasharray:none;stroke-opacity:1"
       d="M 410.34054,482.15678 L 409.09892,482.02839 L 409.28685,480.62053 L 413.66664,476.12353 L 415.02523,476.05314 L 414.8613,477.53556 L 410.34054,482.15678 z"
       id="path2244"
       sodipodi:nodetypes="ccccccc" />
    <path
       style="fill:#cbc68e;fill-opacity:1;fill-rule:evenodd;stroke:#646464;stroke-width:0.39870434999999999;stroke-linecap:butt;stroke-linejoin:miter;stroke-miterlimit:4;stroke-dasharray:none;stroke-opacity:1"
       d="M 409.28263,480.60309 L 408.31914,479.17535 L 412.58193,475.03035 L 413.67362,476.10697 L 409.28263,480.60309 z"
       id="path2246"
       sodipodi:nodetypes="ccccc" />
    <path
       style="fill:url(#linearGradient2502);fill-opacity:1;fill-rule:evenodd;stroke:#333333;stroke-width:0pt;stroke-linecap:butt;stroke-linejoin:miter;stroke-miterlimit:4;stroke-dasharray:none;stroke-opacity:1"
       d="M 408.18858,479.24653 L 405.16606,475.61117 L 409.78469,471.61207 L 412.67381,474.88019 L 408.18858,479.24653 z"
       id="path2248"
       sodipodi:nodetypes="ccccc" />
    <path
       style="fill:#505050;fill-rule:evenodd;stroke:#333333;stroke-width:0.39870434999999999;stroke-linecap:butt;stroke-linejoin:miter;stroke-miterlimit:4;stroke-dasharray:none;stroke-opacity:1;fill-opacity:1"
       d="M 424.70173,491.67314 L 420.30041,487.4002 L 420.04844,487.27169 L 419.9046,487.02988 L 420.20473,487.02988 L 420.30041,487.30382 L 424.70173,491.67314 z"
       id="path2272"
       sodipodi:nodetypes="ccccccc" />
    <path
       style="fill:#ebebeb;fill-opacity:1;fill-rule:evenodd;stroke:#000000;stroke-width:0pt;stroke-linecap:butt;stroke-linejoin:miter;stroke-miterlimit:4;stroke-dasharray:none;stroke-opacity:1"
       d="M 407.84064,471.97666 L 410.45053,474.97652 L 411.41817,475.23313 L 408.63947,471.87833 L 407.84064,471.97666 z"
       id="path2250"
       sodipodi:nodetypes="ccccc" />
    <path
       id="path2411"
       d="M 413.3584,481.24519 L 418.03678,487.08089 L 418.38886,486.15498 L 414.03421,480.64227 L 413.3584,481.24519 z"
       style="fill:url(#linearGradient2474);fill-opacity:1;fill-rule:evenodd;stroke:#000000;stroke-width:0pt;stroke-linecap:butt;stroke-linejoin:miter;stroke-miterlimit:4;stroke-dasharray:none;stroke-opacity:1"
       sodipodi:nodetypes="ccccc" />
    <path
       style="opacity:0.28685303000000001;fill:#a6b600;fill-opacity:1;fill-rule:evenodd;stroke:#646464;stroke-width:0pt;stroke-linecap:butt;stroke-linejoin:miter;stroke-miterlimit:4;stroke-dasharray:none;stroke-opacity:1;filter:url(#filter3923)"
       d="M 559.18822,225.09758 L 648.35489,323.94265 L 690.466,389.29476 L 681.466,329.80181 L 575.466,210.81589 L 559.18822,225.09758 z"
       id="path3733"
       transform="matrix(6.5000533e-2,0,0,6.235123e-2,377.4551,464.27514)"
       sodipodi:nodetypes="cccccc" />
    <path
       style="opacity:0.27490000999999997;fill:#525f39;fill-opacity:1;fill-rule:evenodd;stroke:#000000;stroke-width:0pt;stroke-linecap:butt;stroke-linejoin:miter;stroke-miterlimit:4;stroke-dasharray:none;stroke-opacity:1;filter:url(#filter3923)"
       d="M 566.16522,227.22618 L 641.37789,321.81405 L 673.671,355.56053 L 702.397,355.34498 L 582.443,208.68729 L 566.16522,227.22618 z"
       id="path3927"
       transform="matrix(4.8134784e-2,0,0,5.4458562e-2,383.12343,469.59051)"
       sodipodi:nodetypes="cccccc" />
    <path
       sodipodi:type="arc"
       style="fill:#505050;fill-opacity:1;stroke:#ffffff;stroke-width:0.20000000000000001;stroke-linejoin:round;stroke-miterlimit:4;stroke-dasharray:none;stroke-opacity:1"
       id="path3931"
       sodipodi:cx="261"
       sodipodi:cy="297.14169"
       sodipodi:rx="17"
       sodipodi:ry="26"
       d="M 278,297.14169 A 17,26 0 1 1 244,297.14169 A 17,26 0 1 1 278,297.14169 z"
       transform="matrix(3.6328351e-2,0,0,2.684744e-2,410.64584,479.17954)" />
    <path
       id="path3939"
       d="M 411.5113,475.16974 L 412.96226,476.69777 L 413.40729,476.10756 L 411.7209,475.01187 L 411.5113,475.16974 z"
       style="fill:url(#linearGradient2468);fill-opacity:1;fill-rule:evenodd;stroke:#000000;stroke-width:0pt;stroke-linecap:butt;stroke-linejoin:miter;stroke-miterlimit:4;stroke-dasharray:none;stroke-opacity:1"
       sodipodi:nodetypes="ccccc" />
    <path
       id="path3943"
       d="M 410.61574,476.03914 L 412.06669,477.56717 L 412.51173,476.97697 L 410.82534,475.88127 L 410.61574,476.03914 z"
       style="fill:url(#linearGradient2465);fill-opacity:1;fill-rule:evenodd;stroke:#000000;stroke-width:0pt;stroke-linecap:butt;stroke-linejoin:miter;stroke-miterlimit:4;stroke-dasharray:none;stroke-opacity:1"
       sodipodi:nodetypes="ccccc" />
    <path
       id="path3947"
       d="M 408.60072,477.78143 L 410.01965,479.76966 L 411.05644,478.38529 L 408.98357,477.50416 L 408.60072,477.78143 z"
       style="fill:url(#linearGradient2462);fill-opacity:1;fill-rule:evenodd;stroke:#000000;stroke-width:0pt;stroke-linecap:butt;stroke-linejoin:miter;stroke-miterlimit:4;stroke-dasharray:none;stroke-opacity:1"
       sodipodi:nodetypes="ccccc" />
    <path
       style="opacity:0.12556054;fill:#000000;fill-opacity:1;fill-rule:evenodd;stroke:#000000;stroke-width:0pt;stroke-linecap:butt;stroke-linejoin:miter;stroke-miterlimit:4;stroke-dasharray:none;stroke-opacity:1;filter:url(#filter3923)"
       d="M 610.35288,154.85386 L 592.5389,306.91387 L 610.87802,300.217 L 618.67303,302.13004 L 621.97932,170.37253 L 610.35288,154.85386 z"
       id="path3951"
       transform="matrix(4.8134784e-2,0,0,5.4458562e-2,392.67507,462.40345)"
       sodipodi:nodetypes="cccccc" />
    <path
       style="opacity:0.17040359;fill:#9c9c9c;fill-opacity:1;fill-rule:evenodd;stroke:#000000;stroke-width:1px;stroke-linecap:butt;stroke-linejoin:miter;stroke-opacity:1;filter:url(#filter4585)"
       d="M 16,123.14169 L 52,267.14169 L 92,323.14169 L 126,343.14169 L 166,351.14169 L 114,411.14169 L 86,389.14169 L 60,353.14169 L 40,305.14169 L 26,249.14169 L 16,173.14169 L 16,123.14169 z"
       id="path3963"
       transform="matrix(5.5972697e-2,0,0,5.7960168e-2,405.18285,469.93467)"
       sodipodi:nodetypes="cccccccccccc" />
    <path
       style="opacity:0.17040359;fill:#9c9c9c;fill-opacity:1;fill-rule:evenodd;stroke:#000000;stroke-width:1px;stroke-linecap:butt;stroke-linejoin:miter;stroke-opacity:1;filter:url(#filter4887)"
       d="M 408,147.14169 L 382,183.14169 L 382,241.14169 L 394,295.14169 L 360,291.14169 L 340,289.14169 L 344,139.14169 L 372,135.14169 L 390,135.14169 L 408,147.14169 z"
       id="path4589"
       transform="matrix(5.5972697e-2,0,0,5.7960168e-2,405.18285,469.93467)" />
    <path
       style="opacity:0.37219731;fill:#adadad;fill-opacity:1;fill-rule:evenodd;stroke:#000000;stroke-width:1px;stroke-linecap:butt;stroke-linejoin:miter;stroke-opacity:1;filter:url(#filter5533)"
       d="M 208,373.14169 L 264,403.14169 L 276,381.14169 L 232,349.14169 L 208,373.14169 z"
       id="path5267"
       transform="matrix(5.5972697e-2,0,0,5.7960168e-2,405.18285,469.93467)" />
  </g>
</svg>
