<?xml version="1.0" encoding="UTF-8" standalone="no"?>
<!-- Created with Inkscape (http://www.inkscape.org/) -->
<svg
   xmlns:dc="http://purl.org/dc/elements/1.1/"
   xmlns:cc="http://creativecommons.org/ns#"
   xmlns:rdf="http://www.w3.org/1999/02/22-rdf-syntax-ns#"
   xmlns:svg="http://www.w3.org/2000/svg"
   xmlns="http://www.w3.org/2000/svg"
   xmlns:sodipodi="http://sodipodi.sourceforge.net/DTD/sodipodi-0.dtd"
   xmlns:inkscape="http://www.inkscape.org/namespaces/inkscape"
   height="64"
   id="svg1"
   inkscape:version="0.46"
   sodipodi:docbase="/home/danny/flat/scalable/actions"
   sodipodi:docname="text.svg"
   sodipodi:version="0.32"
   version="1.0"
   width="64"
   x="0"
   y="0"
   inkscape:output_extension="org.inkscape.output.svg.inkscape"
   inkscape:export-filename="/var/local/home/sacha/myServer/content/data/icons/png/text.png"
   inkscape:export-xdpi="90"
   inkscape:export-ydpi="90">
  <metadata
     id="metadata3">
    <rdf:RDF>
      <cc:Work
         rdf:about="">
        <dc:title>Part of the Flat Icon Collection (Wed Aug 25 23:29:46 2004)</dc:title>
        <dc:description />
        <dc:subject>
          <rdf:Bag>
            <rdf:li>hash</rdf:li>
            <rdf:li />
            <rdf:li>action</rdf:li>
            <rdf:li>computer</rdf:li>
            <rdf:li>icons</rdf:li>
            <rdf:li>theme</rdf:li>
          </rdf:Bag>
        </dc:subject>
        <dc:publisher>
          <cc:Agent
             rdf:about="http://www.openclipart.org">
            <dc:title>Danny Allen</dc:title>
          </cc:Agent>
        </dc:publisher>
        <dc:creator>
          <cc:Agent>
            <dc:title>Danny Allen</dc:title>
          </cc:Agent>
        </dc:creator>
        <dc:rights>
          <cc:Agent>
            <dc:title>Danny Allen</dc:title>
          </cc:Agent>
        </dc:rights>
        <dc:date />
        <dc:format>image/svg+xml</dc:format>
        <dc:type
           rdf:resource="http://purl.org/dc/dcmitype/StillImage" />
        <cc:license
           rdf:resource="http://web.resource.org/cc/PublicDomain" />
        <dc:language>en</dc:language>
      </cc:Work>
      <cc:License
         rdf:about="http://web.resource.org/cc/PublicDomain">
        <cc:permits
           rdf:resource="http://web.resource.org/cc/Reproduction" />
        <cc:permits
           rdf:resource="http://web.resource.org/cc/Distribution" />
        <cc:permits
           rdf:resource="http://web.resource.org/cc/DerivativeWorks" />
      </cc:License>
    </rdf:RDF>
  </metadata>
  <sodipodi:namedview
     bordercolor="#666666"
     borderopacity="1.0"
     id="base"
     inkscape:cx="15.917938"
     inkscape:cy="37.519123"
     inkscape:pageopacity="0.0"
     inkscape:pageshadow="2"
     inkscape:window-height="921"
     inkscape:window-width="1179"
     inkscape:window-x="0"
     inkscape:window-y="25"
     inkscape:zoom="6.9465337"
     pagecolor="#ffffff"
     showguides="true"
     snaptoguides="true"
     showgrid="false"
     inkscape:current-layer="svg1" />
  <defs
     id="defs3">
    <inkscape:perspective
       sodipodi:type="inkscape:persp3d"
       inkscape:vp_x="0 : 30 : 1"
       inkscape:vp_y="0 : 1000 : 0"
       inkscape:vp_z="60 : 30 : 1"
       inkscape:persp3d-origin="30 : 20 : 1"
       id="perspective8" />
  </defs>
  <path
     d="M 42.535332,35.362496 C 42.535332,33.806058 42.868154,32.37198 43.533802,31.060265 C 44.199448,29.738759 45.129396,28.701132 46.323645,27.947385 C 47.527683,27.193638 48.898133,26.816764 50.434993,26.816764 C 51.247475,26.816764 52.08443,26.914655 52.945855,27.110433 C 53.807281,27.29642 54.53166,27.619457 55.118995,28.079535 C 55.706331,28.539615 56,29.161212 56,29.944326 C 56,30.570818 55.81401,31.094524 55.442029,31.515448 C 55.07984,31.936373 54.624654,32.146833 54.076474,32.146833 C 53.812175,32.146833 53.552767,32.102784 53.298256,32.014683 C 53.053531,31.926584 52.803915,31.833588 52.549402,31.7357 C 52.304679,31.628021 52.040377,31.539922 51.756499,31.471398 C 51.48241,31.402875 51.134902,31.368613 50.71398,31.368613 C 49.950442,31.368613 49.304375,31.54971 48.775771,31.911898 C 48.256959,32.264301 47.865402,32.74396 47.6011,33.350873 C 47.346589,33.947995 47.219332,34.618538 47.219332,35.362496 C 47.219332,36.086877 47.346589,36.762313 47.6011,37.388804 C 47.855614,38.005506 48.222697,38.494952 48.702354,38.857144 C 49.191802,39.219334 49.769347,39.400429 50.434993,39.400429 C 51.188742,39.400429 51.947383,39.258489 52.710921,38.97461 C 53.474456,38.690731 53.929642,38.548792 54.076474,38.548792 C 54.428875,38.548792 54.751911,38.651575 55.045579,38.857144 C 55.339247,39.062711 55.569288,39.331906 55.735698,39.664729 C 55.911898,39.987766 56,40.320587 56,40.663201 C 56,41.38758 55.681858,41.999389 55.045579,42.498625 C 54.419087,42.997858 53.670234,43.36005 52.799021,43.585192 C 51.927807,43.820128 51.139796,43.937595 50.434993,43.937595 C 49.270114,43.937595 48.203119,43.72224 47.234016,43.291527 C 46.274701,42.860813 45.437748,42.249005 44.723157,41.456103 C 44.008564,40.653412 43.465279,39.733252 43.0933,38.695627 C 42.72132,37.64821 42.535332,36.537166 42.535332,35.362496 z M 25.810952,41.162436 L 25.810952,22.529215 C 25.810952,21.824413 26.031201,21.237077 26.471703,20.767209 C 26.912206,20.29734 27.470174,20.062406 28.14561,20.062406 C 28.830835,20.062406 29.393698,20.29734 29.834199,20.767209 C 30.274702,21.237077 30.494952,21.824413 30.494952,22.529215 L 30.494952,28.152952 C 31.023555,27.712451 31.571735,27.379628 32.139491,27.154483 C 32.717038,26.929337 33.460997,26.816764 34.371367,26.816764 C 35.702661,26.816764 36.921381,27.198533 38.027532,27.962068 C 39.143468,28.715817 40.019576,29.753441 40.655858,31.074947 C 41.301926,32.386662 41.62496,33.815846 41.62496,35.362496 C 41.62496,36.566534 41.443866,37.677579 41.081677,38.695627 C 40.729275,39.713675 40.215354,40.624045 39.539919,41.426736 C 38.864484,42.229429 38.091158,42.851026 37.219944,43.291527 C 36.348731,43.72224 35.399203,43.937595 34.371367,43.937595 C 33.490364,43.937595 32.731721,43.795656 32.095441,43.511778 C 31.459162,43.237689 30.87672,42.777609 30.348118,42.131538 C 30.152339,42.552463 29.86846,42.909758 29.496483,43.203427 C 29.134291,43.487305 28.684001,43.629246 28.14561,43.629246 C 27.460386,43.629246 26.897521,43.394311 26.45702,42.924443 C 26.026307,42.444783 25.810952,41.857448 25.810952,41.162436 z M 33.710614,31.368613 C 32.712145,31.368613 31.924136,31.750382 31.346589,32.51392 C 30.77883,33.277455 30.494952,34.22698 30.494952,35.362496 C 30.494952,36.086877 30.622207,36.762313 30.87672,37.388804 C 31.131231,38.005506 31.498318,38.494952 31.977974,38.857144 C 32.467422,39.219334 33.044967,39.400429 33.710614,39.400429 C 34.718874,39.400429 35.506882,39.01866 36.074641,38.255123 C 36.642397,37.4818 36.926275,36.517589 36.926275,35.362496 C 36.926275,34.217192 36.642397,33.267667 36.074641,32.51392 C 35.506882,31.750382 34.718874,31.368613 33.710614,31.368613 z M 23.814011,29.562556 L 23.814011,41.162436 C 23.814011,41.86724 23.593759,42.454574 23.153259,42.924443 C 22.712755,43.394311 22.149892,43.629246 21.464669,43.629246 C 20.926278,43.629246 20.471091,43.482411 20.099113,43.188743 C 19.736922,42.895076 19.462833,42.542673 19.276843,42.131538 C 18.748241,42.777609 18.160905,43.237689 17.514836,43.511778 C 16.878556,43.795656 16.119914,43.937595 15.238911,43.937595 C 13.897828,43.937595 12.674212,43.560723 11.568064,42.806976 C 10.471704,42.043438 9.6004892,41.005812 8.9544201,39.694096 C 8.31814,38.37259 8,36.928724 8,35.362496 C 8,33.815846 8.31814,32.386662 8.9544201,31.074947 C 9.6004892,29.753441 10.476598,28.715817 11.582747,27.962068 C 12.688895,27.198533 13.907616,26.816764 15.238911,26.816764 C 16.129703,26.816764 16.888345,26.95381 17.514836,27.2279 C 18.151116,27.50199 18.738452,27.966965 19.276843,28.62282 C 19.453044,28.221475 19.727133,27.873968 20.099113,27.580301 C 20.471091,27.276844 20.926278,27.125115 21.464669,27.125115 C 22.149892,27.125115 22.712755,27.360049 23.153259,27.829918 C 23.593759,28.289998 23.814011,28.867545 23.814011,29.562556 z M 15.899663,31.368613 C 14.901193,31.368613 14.113185,31.750382 13.535637,32.51392 C 12.96788,33.277455 12.684001,34.22698 12.684001,35.362496 C 12.684001,36.086877 12.811257,36.762313 13.065769,37.388804 C 13.320281,38.005506 13.687366,38.494952 14.167023,38.857144 C 14.65647,39.219334 15.234016,39.400429 15.899663,39.400429 C 16.907922,39.400429 17.695931,39.01866 18.263689,38.255123 C 18.831447,37.4818 19.115326,36.517589 19.115326,35.362496 C 19.115326,34.217192 18.831447,33.267667 18.263689,32.51392 C 17.695931,31.750382 16.907922,31.368613 15.899663,31.368613 z"
     id="path828"
     style="font-size:12px;font-weight:900;fill:#333333;stroke-width:1pt;font-family:VAG Rounded Black SSi" />
</svg>
