<?xml version="1.0" encoding="UTF-8" standalone="no"?>
<!-- Created with Inkscape (http://www.inkscape.org/) -->
<svg
   xmlns:dc="http://purl.org/dc/elements/1.1/"
   xmlns:cc="http://creativecommons.org/ns#"
   xmlns:rdf="http://www.w3.org/1999/02/22-rdf-syntax-ns#"
   xmlns:svg="http://www.w3.org/2000/svg"
   xmlns="http://www.w3.org/2000/svg"
   xmlns:xlink="http://www.w3.org/1999/xlink"
   xmlns:sodipodi="http://sodipodi.sourceforge.net/DTD/sodipodi-0.dtd"
   xmlns:inkscape="http://www.inkscape.org/namespaces/inkscape"
   width="120"
   height="100"
   id="svg2437"
   sodipodi:version="0.32"
   inkscape:version="0.46"
   sodipodi:docname="announcer_reply_question_120_100.svg"
   inkscape:output_extension="org.inkscape.output.svg.inkscape"
   version="1.0"
   inkscape:export-filename="/var/local/home/sacha/nb/content/data/icons/png/announcer_reply_question.png"
   inkscape:export-xdpi="90"
   inkscape:export-ydpi="90">
  <defs
     id="defs2439">
    <linearGradient
       id="linearGradient3245">
      <stop
         id="stop3247"
         offset="0"
         style="stop-color:#969696;stop-opacity:0.66101694;" />
      <stop
         id="stop3249"
         offset="1"
         style="stop-color:#dddff5;stop-opacity:0.61016947;" />
    </linearGradient>
    <linearGradient
       id="linearGradient3231">
      <stop
         style="stop-color:#2422ff;stop-opacity:1;"
         offset="0"
         id="stop3233" />
      <stop
         style="stop-color:#6a6ad0;stop-opacity:1;"
         offset="1"
         id="stop3235" />
    </linearGradient>
    <linearGradient
       id="linearGradient3223">
      <stop
         style="stop-color:#7f82ff;stop-opacity:0.83137256;"
         offset="0"
         id="stop3225" />
      <stop
         style="stop-color:#dddff5;stop-opacity:0.61016947;"
         offset="1"
         id="stop3227" />
    </linearGradient>
    <inkscape:perspective
       sodipodi:type="inkscape:persp3d"
       inkscape:vp_x="0 : 8 : 1"
       inkscape:vp_y="0 : 1000 : 0"
       inkscape:vp_z="16 : 8 : 1"
       inkscape:persp3d-origin="8 : 5.3333333 : 1"
       id="perspective2445" />
    <linearGradient
       inkscape:collect="always"
       xlink:href="#linearGradient3223"
       id="linearGradient3229"
       x1="13.010782"
       y1="11.513861"
       x2="3.4873614"
       y2="0.77436244"
       gradientUnits="userSpaceOnUse" />
    <linearGradient
       inkscape:collect="always"
       xlink:href="#linearGradient3231"
       id="linearGradient3237"
       x1="13.010782"
       y1="11.513861"
       x2="3.4873614"
       y2="0.77436244"
       gradientUnits="userSpaceOnUse" />
    <linearGradient
       inkscape:collect="always"
       xlink:href="#linearGradient3245"
       id="linearGradient3241"
       gradientUnits="userSpaceOnUse"
       x1="9.4518709"
       y1="5.297029"
       x2="4.0730052"
       y2="3.1619861"
       gradientTransform="translate(-16.315346,-1.1000003)" />
    <linearGradient
       inkscape:collect="always"
       xlink:href="#linearGradient3223"
       id="linearGradient3265"
       gradientUnits="userSpaceOnUse"
       x1="13.010782"
       y1="11.513861"
       x2="3.4873614"
       y2="0.77436244" />
    <linearGradient
       inkscape:collect="always"
       xlink:href="#linearGradient3231"
       id="linearGradient3267"
       gradientUnits="userSpaceOnUse"
       x1="13.010782"
       y1="11.513861"
       x2="3.4873614"
       y2="0.77436244" />
    <linearGradient
       inkscape:collect="always"
       xlink:href="#linearGradient3223"
       id="linearGradient3270"
       gradientUnits="userSpaceOnUse"
       x1="13.010782"
       y1="11.513861"
       x2="3.4873614"
       y2="0.77436244" />
    <linearGradient
       inkscape:collect="always"
       xlink:href="#linearGradient3231"
       id="linearGradient3272"
       gradientUnits="userSpaceOnUse"
       x1="13.010782"
       y1="11.513861"
       x2="3.4873614"
       y2="0.77436244" />
    <linearGradient
       inkscape:collect="always"
       xlink:href="#linearGradient3223"
       id="linearGradient3288"
       gradientUnits="userSpaceOnUse"
       x1="13.010782"
       y1="11.513861"
       x2="3.4873614"
       y2="0.77436244"
       gradientTransform="translate(-20.343564,2.9544551)" />
    <linearGradient
       inkscape:collect="always"
       xlink:href="#linearGradient3231"
       id="linearGradient3290"
       gradientUnits="userSpaceOnUse"
       x1="13.010782"
       y1="11.513861"
       x2="3.4873614"
       y2="0.77436244"
       gradientTransform="translate(-20.343564,2.9544551)" />
    <linearGradient
       inkscape:collect="always"
       xlink:href="#linearGradient3223"
       id="linearGradient3312"
       gradientUnits="userSpaceOnUse"
       x1="13.010782"
       y1="11.513861"
       x2="3.4873614"
       y2="0.77436244" />
    <linearGradient
       inkscape:collect="always"
       xlink:href="#linearGradient3231"
       id="linearGradient3314"
       gradientUnits="userSpaceOnUse"
       x1="13.010782"
       y1="11.513861"
       x2="3.4873614"
       y2="0.77436244" />
    <linearGradient
       inkscape:collect="always"
       xlink:href="#linearGradient3223"
       id="linearGradient3316"
       gradientUnits="userSpaceOnUse"
       x1="13.010782"
       y1="11.513861"
       x2="3.4873614"
       y2="0.77436244"
       gradientTransform="matrix(1.0203413,0,0,1.0203413,-7.1575086e-3,-0.4319378)" />
    <linearGradient
       inkscape:collect="always"
       xlink:href="#linearGradient3231"
       id="linearGradient3318"
       gradientUnits="userSpaceOnUse"
       x1="13.010782"
       y1="11.513861"
       x2="3.4873614"
       y2="0.77436244"
       gradientTransform="matrix(1.0203413,0,0,1.0203413,-7.1575086e-3,-0.4319378)" />
    <linearGradient
       inkscape:collect="always"
       xlink:href="#linearGradient3223"
       id="linearGradient3324"
       gradientUnits="userSpaceOnUse"
       x1="13.010782"
       y1="11.513861"
       x2="3.4873614"
       y2="0.77436244" />
    <linearGradient
       inkscape:collect="always"
       xlink:href="#linearGradient3231"
       id="linearGradient3326"
       gradientUnits="userSpaceOnUse"
       x1="13.010782"
       y1="11.513861"
       x2="3.4873614"
       y2="0.77436244" />
    <mask
       maskUnits="userSpaceOnUse"
       id="mask3320">
      <path
         sodipodi:nodetypes="csscs"
         id="path3322"
         d="M 4.2542596,12.114719 C -1.1749458,11.540644 -1.6729166,0.63318893 9.2496281,0.93032318 C 17.435897,1.1517964 17.75524,11.708612 9.1596431,12.317209 C 5.2965827,12.592167 6.4409249,14.208375 3.9063823,15.075638 C 5.2389394,13.130605 4.9030438,12.183894 4.2542596,12.114719 z"
         style="fill:url(#linearGradient3324);fill-opacity:1;fill-rule:evenodd;stroke:url(#linearGradient3326);stroke-width:0.30000001;stroke-linecap:butt;stroke-linejoin:miter;stroke-miterlimit:4;stroke-dasharray:none;stroke-opacity:1"
         mask="none" />
    </mask>
    <linearGradient
       inkscape:collect="always"
       xlink:href="#linearGradient3223"
       id="linearGradient2411"
       gradientUnits="userSpaceOnUse"
       gradientTransform="matrix(1.0203413,0,0,1.0203413,-7.1575086e-3,-0.4319378)"
       x1="13.010782"
       y1="11.513861"
       x2="3.4873614"
       y2="0.77436244" />
    <linearGradient
       inkscape:collect="always"
       xlink:href="#linearGradient3231"
       id="linearGradient2413"
       gradientUnits="userSpaceOnUse"
       gradientTransform="matrix(1.0203413,0,0,1.0203413,-7.1575086e-3,-0.4319378)"
       x1="13.010782"
       y1="11.513861"
       x2="3.4873614"
       y2="0.77436244" />
    <linearGradient
       inkscape:collect="always"
       xlink:href="#linearGradient3223"
       id="linearGradient2412"
       gradientUnits="userSpaceOnUse"
       gradientTransform="matrix(1.0203413,0,0,1.0203413,-7.1575086e-3,-0.4319378)"
       x1="13.010782"
       y1="11.513861"
       x2="3.4873614"
       y2="0.77436244" />
    <linearGradient
       inkscape:collect="always"
       xlink:href="#linearGradient3231"
       id="linearGradient2414"
       gradientUnits="userSpaceOnUse"
       gradientTransform="matrix(1.0203413,0,0,1.0203413,-7.1575086e-3,-0.4319378)"
       x1="13.010782"
       y1="11.513861"
       x2="3.4873614"
       y2="0.77436244" />
    <linearGradient
       inkscape:collect="always"
       xlink:href="#linearGradient3223"
       id="linearGradient2417"
       gradientUnits="userSpaceOnUse"
       gradientTransform="matrix(5.1017064,0,0,5.1017064,-1.5008,-75.718517)"
       x1="13.010782"
       y1="11.513861"
       x2="3.4873614"
       y2="0.77436244" />
    <linearGradient
       inkscape:collect="always"
       xlink:href="#linearGradient3231"
       id="linearGradient2419"
       gradientUnits="userSpaceOnUse"
       gradientTransform="matrix(5.1017064,0,0,5.1017064,-1.5008,-75.718517)"
       x1="13.010782"
       y1="11.513861"
       x2="3.4873614"
       y2="0.77436244" />
    <linearGradient
       inkscape:collect="always"
       xlink:href="#linearGradient3223"
       id="linearGradient2426"
       gradientUnits="userSpaceOnUse"
       gradientTransform="matrix(5.1017064,0,0,5.1017064,-1.5008,-75.718517)"
       x1="13.010782"
       y1="11.513861"
       x2="3.4873614"
       y2="0.77436244" />
    <linearGradient
       inkscape:collect="always"
       xlink:href="#linearGradient3231"
       id="linearGradient2428"
       gradientUnits="userSpaceOnUse"
       gradientTransform="matrix(5.1017064,0,0,5.1017064,-1.5008,-75.718517)"
       x1="13.010782"
       y1="11.513861"
       x2="3.4873614"
       y2="0.77436244" />
    <linearGradient
       id="linearGradient2327">
      <stop
         style="stop-color:#f5ddd8;stop-opacity:1;"
         offset="0"
         id="stop2328" />
      <stop
         style="stop-color:#eaec52;stop-opacity:1;"
         offset="0.5"
         id="stop2331" />
      <stop
         style="stop-color:#f2e8d2;stop-opacity:0.90588236;"
         offset="1"
         id="stop2329" />
    </linearGradient>
    <inkscape:perspective
       id="perspective20"
       inkscape:persp3d-origin="15.625 : 16.666667 : 1"
       inkscape:vp_z="31.25 : 25 : 1"
       inkscape:vp_y="0 : 1000 : 0"
       inkscape:vp_x="0 : 25 : 1"
       sodipodi:type="inkscape:persp3d" />
    <radialGradient
       inkscape:collect="always"
       xlink:href="#linearGradient2327"
       id="radialGradient2441"
       gradientUnits="userSpaceOnUse"
       gradientTransform="matrix(0.7162767,0,0,1.3280523,-102.04178,-253.51935)"
       cx="318.0596"
       cy="211.46535"
       fx="318.05963"
       fy="209.14285"
       r="166.88744" />
    <linearGradient
       inkscape:collect="always"
       xlink:href="#linearGradient3245"
       id="linearGradient3219"
       x1="58.385384"
       y1="-22.983973"
       x2="111.37685"
       y2="-22.983973"
       gradientUnits="userSpaceOnUse"
       gradientTransform="translate(-6.352476,2.9346533)" />
    <linearGradient
       inkscape:collect="always"
       xlink:href="#linearGradient3245"
       id="linearGradient3232"
       gradientUnits="userSpaceOnUse"
       gradientTransform="matrix(0.5941376,0,0,0.6302685,11.080085,7.4281451)"
       x1="58.385384"
       y1="-22.983973"
       x2="111.37685"
       y2="-22.983973" />
    <radialGradient
       inkscape:collect="always"
       xlink:href="#linearGradient2327"
       id="radialGradient3234"
       gradientUnits="userSpaceOnUse"
       gradientTransform="matrix(0.7162767,0,0,1.3280523,12.521891,-184.60911)"
       cx="318.0596"
       cy="211.46535"
       fx="318.05963"
       fy="209.14285"
       r="166.88744" />
  </defs>
  <sodipodi:namedview
     id="base"
     pagecolor="#ffffff"
     bordercolor="#666666"
     borderopacity="1.0"
     inkscape:pageopacity="0.0"
     inkscape:pageshadow="2"
     inkscape:zoom="1.8598382"
     inkscape:cx="104.4539"
     inkscape:cy="19.603962"
     inkscape:current-layer="layer1"
     showgrid="false"
     inkscape:grid-bbox="true"
     inkscape:document-units="px"
     inkscape:window-width="1276"
     inkscape:window-height="721"
     inkscape:window-x="114"
     inkscape:window-y="209">
    <inkscape:grid
       type="xygrid"
       id="grid2415"
       visible="true"
       enabled="true" />
  </sodipodi:namedview>
  <metadata
     id="metadata2442">
    <rdf:RDF>
      <cc:Work
         rdf:about="">
        <dc:format>image/svg+xml</dc:format>
        <dc:type
           rdf:resource="http://purl.org/dc/dcmitype/StillImage" />
      </cc:Work>
    </rdf:RDF>
  </metadata>
  <g
     id="layer1"
     inkscape:label="Layer 1"
     inkscape:groupmode="layer"
     transform="translate(-0.2943426,87.386138)">
    <path
       d="M 92.46435,3.133442 C 95.97813,4.115684 98.05467,3.3321903 95.56028,0.429141 C 81.07253,-8.134261 78.49191,-13.525819 80.39863,-22.064617 C 89.7135,-64.844815 43.41341,-51.662682 53.47179,-18.86988 C 54.91336,-14.075226 58.42926,-15.413216 59.24887,-18.24976 C 49.06609,-44.919027 81.451,-48.208152 73.18997,-20.752223 C 70.24493,-10.081162 77.9766,-5.4299589 92.46435,3.133442 z M 104.48988,5.706567 C 105.23691,6.506586 105.19587,7.760329 104.39828,8.505102 C 103.60068,9.249874 102.34707,9.205038 101.60003,8.405019 C 100.853,7.604998 100.89404,6.351257 101.69163,5.606485 C 102.48923,4.861712 103.74284,4.906546 104.48988,5.706567 z"
       id="path3215"
       style="fill:url(#linearGradient3219);fill-opacity:1;fill-rule:evenodd;stroke:none;stroke-width:2.31639385;stroke-linecap:round;stroke-linejoin:round;stroke-miterlimit:4;stroke-dashoffset:0;stroke-opacity:1" />
    <path
       d="M 69.79088,7.5534351 C 71.878548,8.172511 73.112299,7.6787001 71.630288,5.8489991 C 63.022569,0.4517571 61.489325,-2.9463719 62.622179,-8.3281069 C 68.156494,-35.291118 40.64787,-26.982834 46.623932,-6.3145649 C 47.480423,-3.2926459 49.569351,-4.1359389 50.056312,-5.9237229 C 44.00634,-22.732521 63.247432,-24.805552 58.339244,-7.5009459 C 56.589485,-0.7753129 61.18316,2.1561941 69.79088,7.5534351 z M 76.935699,9.175194 C 77.379539,9.679421 77.355159,10.469616 76.881279,10.939023 C 76.407389,11.408429 75.662579,11.38017 75.218729,10.875944 C 74.774892,10.371716 74.799275,9.581522 75.273149,9.112116 C 75.747039,8.642709 76.491859,8.670966 76.935699,9.175194 z"
       id="path3225"
       style="fill:url(#linearGradient3232);fill-opacity:1;fill-rule:evenodd;stroke:none;stroke-width:2.31639385;stroke-linecap:round;stroke-linejoin:round;stroke-miterlimit:4;stroke-dashoffset:0;stroke-opacity:1" />
    <g
       id="g2422"
       transform="matrix(1.515178,0,0,1.3041584,1.563612,8.7257502)">
      <path
         transform="matrix(5.1017064,0,0,5.1017064,-1.5008,-75.718517)"
         mask="url(#mask3320)"
         sodipodi:nodetypes="csc"
         id="path3251"
         d="M 13.252179,-2.2870037 C 28.081281,-1.4681261 15.353541,37.094685 2.0245333,13.724834 C 0.96897231,11.874111 3.8454213,-0.25408755 13.252179,-2.2870037 z"
         style="fill:#969696;fill-opacity:1;fill-rule:evenodd;stroke:none;stroke-width:0.30000001;stroke-linecap:butt;stroke-linejoin:miter;stroke-miterlimit:4;stroke-dasharray:none;stroke-opacity:1" />
      <path
         style="fill:url(#linearGradient2426);fill-opacity:1;fill-rule:evenodd;stroke:url(#linearGradient2428);stroke-width:1.53051198;stroke-linecap:butt;stroke-linejoin:miter;stroke-miterlimit:4;stroke-dasharray:none;stroke-opacity:1"
         d="M 20.203185,-13.912784 C -7.4950249,-16.841544 -10.035532,-72.488175 45.688088,-70.972284 C 87.452026,-69.842393 89.081221,-15.984624 45.229011,-12.879739 C 25.520808,-11.476979 31.35891,-3.2315594 18.428418,1.1929605 C 25.22673,-8.7300243 23.51309,-13.559874 20.203185,-13.912784 z"
         id="path3286"
         sodipodi:nodetypes="csscs" />
    </g>
    <path
       d="M 97.04208,-3.4072315 C 98.93992,-0.2912005 100.99238,0.5533655 101.15054,-3.2708545 C 96.40593,-19.417538 98.19944,-25.119454 105.42069,-30.059111 C 141.4259,-54.969684 98.5887,-76.934213 83.5596,-46.10136 C 81.34094,-41.613111 84.82386,-40.191479 87.35882,-41.705323 C 98.11775,-68.147413 124.03253,-48.449083 99.25622,-34.019713 C 89.82082,-28.230237 92.29747,-19.553914 97.04208,-3.4072315 z M 104.07536,6.680745 C 104.07536,7.775318 103.1897,8.663665 102.09844,8.663665 C 101.00718,8.663665 100.12152,7.775318 100.12152,6.680745 C 100.12152,5.586168 101.00718,4.697824 102.09844,4.697824 C 103.1897,4.697824 104.07536,5.586168 104.07536,6.680745 z"
       id="path1062"
       style="fill:url(#radialGradient2441);fill-opacity:1;fill-rule:evenodd;stroke:none;stroke-width:2.31639385;stroke-linecap:round;stroke-linejoin:round;stroke-miterlimit:4;stroke-dashoffset:0;stroke-opacity:1" />
    <path
       d="M 72.961584,2.6722801 C 74.023254,4.5414581 75.171424,5.0480781 75.259904,2.7540871 C 72.605714,-6.9316409 73.609024,-10.351985 77.648664,-13.315081 C 97.790374,-28.257904 73.826774,-41.433517 65.419334,-22.938163 C 64.178194,-20.245848 66.126574,-19.39307 67.544664,-20.301162 C 73.563324,-36.162679 88.060334,-24.346465 74.200194,-15.690882 C 68.921934,-12.218015 70.307394,-7.0134469 72.961584,2.6722801 z M 76.896074,8.7236401 C 76.896074,9.3802301 76.400624,9.9131121 75.790164,9.9131121 C 75.179704,9.9131121 74.684254,9.3802301 74.684254,8.7236401 C 74.684254,8.0670491 75.179704,7.5341681 75.790164,7.5341681 C 76.400624,7.5341681 76.896074,8.0670491 76.896074,8.7236401 z"
       id="path3221"
       style="opacity:0.73991029;fill:#013397;fill-opacity:1;fill-rule:evenodd;stroke:none;stroke-width:2.31639385;stroke-linecap:round;stroke-linejoin:round;stroke-miterlimit:4;stroke-dashoffset:0;stroke-opacity:1" />
  </g>
</svg>
