<?xml version="1.0" encoding="UTF-8" standalone="no"?>
<!-- Created with Inkscape (http://www.inkscape.org/) -->
<svg
   xmlns:dc="http://purl.org/dc/elements/1.1/"
   xmlns:cc="http://creativecommons.org/ns#"
   xmlns:rdf="http://www.w3.org/1999/02/22-rdf-syntax-ns#"
   xmlns:svg="http://www.w3.org/2000/svg"
   xmlns="http://www.w3.org/2000/svg"
   xmlns:xlink="http://www.w3.org/1999/xlink"
   xmlns:sodipodi="http://sodipodi.sourceforge.net/DTD/sodipodi-0.dtd"
   xmlns:inkscape="http://www.inkscape.org/namespaces/inkscape"
   height="24"
   id="svg1"
   inkscape:version="0.46"
   sodipodi:docbase="/home/nicu/Desktop/pins"
   sodipodi:docname="note_blurred_24.svg"
   sodipodi:version="0.32"
   width="23.999996"
   inkscape:output_extension="org.inkscape.output.svg.inkscape"
   inkscape:export-filename="/var/local/home/sacha/nb/data/icons/png/note_24.png"
   inkscape:export-xdpi="90"
   inkscape:export-ydpi="90"
   version="1.0">
  <metadata
     id="metadata3">
    <rdf:RDF>
      <cc:Work
         rdf:about="">
        <dc:title>note with paperclip</dc:title>
        <dc:description />
        <dc:subject>
          <rdf:Bag>
            <rdf:li>office</rdf:li>
            <rdf:li />
          </rdf:Bag>
        </dc:subject>
        <dc:publisher>
          <cc:Agent
             rdf:about="http://www.openclipart.org">
            <dc:title>Nicu Buculei</dc:title>
          </cc:Agent>
        </dc:publisher>
        <dc:creator>
          <cc:Agent>
            <dc:title>Nicu Buculei</dc:title>
          </cc:Agent>
        </dc:creator>
        <dc:rights>
          <cc:Agent>
            <dc:title>Nicu Buculei</dc:title>
          </cc:Agent>
        </dc:rights>
        <dc:date />
        <dc:format>image/svg+xml</dc:format>
        <dc:type
           rdf:resource="http://purl.org/dc/dcmitype/StillImage" />
        <cc:license
           rdf:resource="http://web.resource.org/cc/PublicDomain" />
        <dc:language>en</dc:language>
      </cc:Work>
      <cc:License
         rdf:about="http://web.resource.org/cc/PublicDomain">
        <cc:permits
           rdf:resource="http://web.resource.org/cc/Reproduction" />
        <cc:permits
           rdf:resource="http://web.resource.org/cc/Distribution" />
        <cc:permits
           rdf:resource="http://web.resource.org/cc/DerivativeWorks" />
      </cc:License>
    </rdf:RDF>
  </metadata>
  <defs
     id="defs3">
    <linearGradient
       id="linearGradient3173">
      <stop
         style="stop-color:#000000;stop-opacity:0;"
         offset="0"
         id="stop3175" />
      <stop
         style="stop-color:#ffffff;stop-opacity:0.68041235;"
         offset="1.0000000"
         id="stop3177" />
    </linearGradient>
    <inkscape:perspective
       sodipodi:type="inkscape:persp3d"
       inkscape:vp_x="0 : 100 : 1"
       inkscape:vp_y="0 : 1000 : 0"
       inkscape:vp_z="200 : 100 : 1"
       inkscape:persp3d-origin="100 : 66.666667 : 1"
       id="perspective26" />
    <linearGradient
       id="linearGradient9837">
      <stop
         id="stop9838"
         offset="0"
         style="stop-color:#f8f524;stop-opacity:1;" />
      <stop
         id="stop9839"
         offset="1"
         style="stop-color:#ffffe5;stop-opacity:1;" />
    </linearGradient>
    <linearGradient
       id="linearGradient4810">
      <stop
         id="stop4811"
         offset="0.0000000"
         style="stop-color:#ffffff;stop-opacity:0.0000000;" />
      <stop
         id="stop4812"
         offset="1.0000000"
         style="stop-color:#ffffff;stop-opacity:0.68041235;" />
    </linearGradient>
    <linearGradient
       id="linearGradient2931">
      <stop
         id="stop2932"
         offset="0.0000000"
         style="stop-color:#ffffff;stop-opacity:1.0000000;" />
      <stop
         id="stop2933"
         offset="1.0000000"
         style="stop-color:#ffffff;stop-opacity:0.0000000;" />
    </linearGradient>
    <filter
       inkscape:collect="always"
       id="filter3203">
      <feGaussianBlur
         inkscape:collect="always"
         stdDeviation="2.2127128"
         id="feGaussianBlur3205" />
    </filter>
    <linearGradient
       inkscape:collect="always"
       xlink:href="#linearGradient3173"
       id="linearGradient3252"
       gradientUnits="userSpaceOnUse"
       gradientTransform="matrix(1.04727,0,0,0.954864,46.25,53.75)"
       x1="28.924427"
       y1="89.562439"
       x2="200.05717"
       y2="264.03903" />
    <linearGradient
       inkscape:collect="always"
       xlink:href="#linearGradient9837"
       id="linearGradient3254"
       gradientUnits="userSpaceOnUse"
       gradientTransform="matrix(1.04727,0,0,0.954864,46.25,53.75)"
       x1="111.99757"
       y1="125.16961"
       x2="-29.110085"
       y2="-21.865551" />
    <filter
       inkscape:collect="always"
       id="filter3633">
      <feGaussianBlur
         inkscape:collect="always"
         stdDeviation="0.11689394"
         id="feGaussianBlur3635" />
    </filter>
    <filter
       inkscape:collect="always"
       id="filter3637">
      <feGaussianBlur
         inkscape:collect="always"
         stdDeviation="3.5786093"
         id="feGaussianBlur3639" />
    </filter>
    <filter
       inkscape:collect="always"
       id="filter3641">
      <feGaussianBlur
         inkscape:collect="always"
         stdDeviation="0.11689394"
         id="feGaussianBlur3643" />
    </filter>
    <filter
       inkscape:collect="always"
       id="filter3645">
      <feGaussianBlur
         inkscape:collect="always"
         stdDeviation="0.11689394"
         id="feGaussianBlur3647" />
    </filter>
    <filter
       inkscape:collect="always"
       id="filter3649">
      <feGaussianBlur
         inkscape:collect="always"
         stdDeviation="0.93373073"
         id="feGaussianBlur3651" />
    </filter>
  </defs>
  <sodipodi:namedview
     bordercolor="#666666"
     borderopacity="1.0"
     id="base"
     inkscape:current-layer="svg1"
     inkscape:cx="28.992962"
     inkscape:cy="15.994615"
     inkscape:pageopacity="0.0"
     inkscape:pageshadow="2"
     inkscape:window-height="975"
     inkscape:window-width="1400"
     inkscape:window-x="0"
     inkscape:window-y="25"
     inkscape:zoom="11.36"
     pagecolor="#ffffff"
     showborder="true"
     showgrid="false" />
  <g
     id="layer1"
     inkscape:groupmode="layer"
     inkscape:label="Layer 1"
     transform="translate(-6.8453242,-171.11742)" />
  <path
     d="M 26.851075,40.125 L 195.60107,40.125 C 208.10107,102.625 175.60107,145.125 195.60107,193.875 L 26.851075,193.875 C 1.851075,142.625 35.601075,93.875 26.851075,40.125 z"
     id="path3169"
     sodipodi:nodetypes="ccccc"
     style="fill:url(#linearGradient3252);fill-opacity:1;stroke:none;stroke-width:2.50000000000000000;stroke-linecap:round;stroke-linejoin:bevel;stroke-miterlimit:4;stroke-opacity:1;opacity:0.56053812;filter:url(#filter3649)"
     transform="matrix(0.1251902,0,0,0.1251902,-0.7689393,-0.9855032)" />
  <path
     d="M 1.4218892,2.9266906 L 22.547735,2.9266906 C 24.112613,10.751078 20.043931,16.071662 22.547735,22.174684 L 1.4218892,22.174684 C -1.7078658,15.758686 2.5173034,9.6556638 1.4218892,2.9266906 z"
     id="rect9215"
     sodipodi:nodetypes="ccccc"
     style="fill:#c8c8c8;fill-opacity:1;stroke:#8c8c8c;stroke-width:0.31297550000000002;stroke-linecap:round;stroke-linejoin:bevel;stroke-miterlimit:4;stroke-opacity:1;opacity:0.56053812;filter:url(#filter3645)" />
  <path
     style="fill:#939292;fill-rule:evenodd;stroke:none;stroke-width:9.58148478999999931;stroke-linejoin:round;stroke-miterlimit:4;stroke-opacity:1;opacity:0.56053812;filter:url(#filter3641)"
     sodipodi:nodetypes="cccccccccccccccccccccccccccccccccccccccccccccccc"
     id="path830"
     d="M 4.4248568,2.8385316 C 4.4248564,2.2295071 4.5424765,2.0406883 4.6721375,1.8230027 C 5.1778264,1.5578005 5.4797204,1.3997815 6.5899872,1.2920202 C 7.3651949,1.3068444 7.9460281,1.3369998 8.2605565,1.4161853 C 8.420033,1.4563347 8.500646,1.5042168 8.5340466,1.5383314 C 8.5674468,1.5724461 8.5862267,1.6025743 8.5807678,1.7089323 L 8.5796281,1.7281123 L 8.5807678,1.7472923 C 8.6247246,2.2274332 8.6461385,4.5568353 8.6502798,6.7098566 C 8.654401,8.8524566 8.6458011,10.841412 8.6457217,10.860806 C 8.5864733,11.319254 8.4847952,11.431135 8.2104166,11.727942 C 7.9404065,11.942493 7.9150467,11.991155 7.3466433,12.017661 L 7.3386666,12.01867 L 7.3306899,12.01867 C 6.6902411,12.075386 6.4717791,12.102261 5.8960059,11.955073 C 5.5062081,11.684121 5.3323582,11.341404 5.3524443,11.110145 C 5.3602397,11.020394 5.3601943,10.882581 5.3615607,10.637712 C 5.362927,10.392844 5.3623384,10.064986 5.3615607,9.6827519 C 5.3600055,8.918283 5.355242,7.9350437 5.3490256,6.9642435 C 5.3365928,5.022643 5.2768407,3.8284021 5.3205372,3.5225272 L 4.6368117,3.5275746 C 4.6368117,3.920842 4.6528729,5.0275009 4.6653001,6.9682815 C 4.6715139,7.9386718 4.6762829,8.9207818 4.6778352,9.6837612 C 4.6786113,10.065251 4.6791878,10.392306 4.6778352,10.634684 C 4.6764828,10.877062 4.6714891,11.058053 4.6709981,11.063709 C 4.6256103,11.586268 4.9683482,12.105778 5.5381898,12.475961 L 5.5860506,12.507254 L 5.6418882,12.522396 C 6.3356012,12.706763 6.7306959,12.679871 7.3819691,12.622334 C 7.3877246,12.621826 7.3921268,12.621838 7.3979229,12.621325 C 8.0607969,12.587546 8.384083,12.401567 8.6844662,12.165043 L 8.704978,12.148892 L 8.7220711,12.130721 C 9.0260337,11.801634 9.2562181,11.490241 9.3283076,10.915317 L 9.3294469,10.899166 L 9.3294469,10.883014 C 9.3294469,10.883014 9.3381507,8.8638888 9.3340053,6.7088473 C 9.3298598,4.5538054 9.3176978,2.3038789 9.262214,1.6978279 C 9.2637829,1.4940359 9.1971062,1.2905856 9.0502591,1.1405994 C 8.894147,0.98114968 8.6814898,0.89163455 8.4474412,0.8327105 C 7.9793441,0.71486274 7.3751971,0.70108447 6.5763128,0.68633704 L 6.553522,0.68532771 L 6.5318706,0.68734671 C 5.2705518,0.80813658 4.8002145,1.0532709 4.2413907,1.3445129 L 4.1547853,1.389939 L 4.1092035,1.4696874 C 3.991892,1.6774733 3.7411309,2.0561572 3.7411316,2.8385316 C 3.6974351,2.9607084 4.4685532,2.912533 4.4248568,2.8385316 z" />
  <g
     style="stroke:none;stroke-opacity:1;opacity:0.56053812;filter:url(#filter3637)"
     transform="matrix(-3.2664627e-2,0,0,-3.2664627e-2,14.842514,16.808832)"
     id="g830">
    <path
       style="fill:#ffffff;fill-opacity:0.40000000000000002;fill-rule:evenodd;stroke:none;stroke-width:1pt;stroke-linecap:butt;stroke-linejoin:miter;stroke-opacity:1"
       sodipodi:nodetypes="cccccc"
       id="path616"
       d="M 180.80971,459.42164 L 177.0699,173.27959 C 182.13894,162.12769 190.72004,150.79803 201.94047,146.86574 C 190.15772,157.12777 183.23942,168.94521 184.14842,177.12421 C 184.14842,181.66821 186.26271,459.42164 186.26271,459.42164 L 180.80971,459.42164 z" />
    <path
       style="fill:#ffffff;fill-opacity:0.40000000000000002;fill-rule:evenodd;stroke:none;stroke-width:1pt;stroke-linecap:butt;stroke-linejoin:miter;stroke-opacity:1"
       sodipodi:nodetypes="ccccc"
       id="path617"
       d="M 295.98607,168.295 L 297.40097,399.5627 L 302.15459,398.95099 L 298.10036,168.295 L 295.98607,168.295 z" />
    <path
       style="fill:#ffffff;fill-opacity:0.40000000000000002;fill-rule:evenodd;stroke:none;stroke-width:1pt;stroke-linecap:butt;stroke-linejoin:miter;stroke-opacity:1"
       sodipodi:nodetypes="cccc"
       id="path618"
       d="M 320.28031,432.458 C 318.63337,426.69372 325.78772,444.19416 316.15654,460.922 C 325.78772,450.78391 328.79501,438.97078 329.70301,429.88278 L 320.28031,432.458 z" />
  </g>
  <path
     style="fill:#808080;fill-opacity:1;fill-rule:evenodd;stroke:none;stroke-width:2.50000095000000000;stroke-linejoin:round;stroke-miterlimit:4;stroke-opacity:1;opacity:0.56053812;filter:url(#filter3633)"
     sodipodi:nodetypes="ccccccccccccccccccccccccccccccccccccccccccccccc"
     id="path1816"
     d="M 6.5394106,0.528169 C 5.6672708,0.59952416 4.5729891,0.64923844 4.038913,1.3325011 C 3.5507189,1.9423184 3.532731,2.4270248 3.5974409,2.9840526 C 3.8458948,2.9964161 4.480669,3.0654079 4.5699241,2.8940721 C 4.5962866,2.5754033 4.5642457,2.0982457 4.9083336,1.9307395 C 5.4869051,1.6205002 6.1570321,1.5075575 6.8073151,1.5061314 C 7.3277433,1.5380952 7.8963921,1.3708595 8.3685145,1.703452 C 8.571271,1.8643737 8.4569888,3.5057543 8.4981075,3.7377409 C 8.5590789,6.5621835 8.5682464,8.1502986 8.5644657,10.975203 C 8.5512131,11.411505 8.1508187,11.722708 7.7541561,11.874147 C 7.1587089,11.931041 6.5438711,12.092375 5.9564937,11.914617 C 5.5783049,11.686203 5.5227348,11.442023 5.5101446,10.781788 C 5.5164857,8.5097309 5.4957266,6.2377043 5.4552297,3.9660658 C 5.5093043,3.6891551 5.4690118,3.3335166 5.114604,3.4233469 C 4.9176929,3.4439738 4.6983975,3.3805679 4.519611,3.4719692 C 4.4175587,3.8330677 4.5038225,4.2407974 4.4818323,4.6211154 C 4.5010802,6.8567665 4.5202982,9.0933966 4.5095308,11.328648 C 4.5750051,11.936282 5.0344259,12.4461 5.5588695,12.719673 C 6.3074632,12.948 7.102645,12.882233 7.8649482,12.774352 C 8.453734,12.665443 8.968799,12.27523 9.2406157,11.74197 C 9.4693244,11.3525 9.503266,10.893792 9.4790692,10.453034 C 9.4775882,7.691453 9.5035114,4.9291043 9.4346392,2.1681572 C 9.4140868,1.7695918 9.4396619,1.2937191 9.0845761,1.01973 C 8.552126,0.61354809 7.8387734,0.63790911 7.2025455,0.59966488 C 6.98171,0.59091095 6.7594987,0.53998809 6.5394106,0.528169 z M 6.6049437,0.81424626 C 7.3211456,0.85667059 8.0213045,0.86788776 8.7003862,1.1448196 C 9.282271,1.4613429 9.2236422,1.8633742 9.2274517,2.2339442 C 9.2991256,5.1665751 9.2731399,7.8047403 9.2720858,10.738005 C 9.2015461,11.849077 8.5332309,12.483538 7.760249,12.56722 C 7.0677193,12.646325 6.2599774,12.690384 5.5892346,12.4545 C 5.1347978,12.166433 4.744298,11.620587 4.8218913,11.047399 C 4.8353084,8.6112966 4.8065729,6.1751244 4.7867478,3.739106 C 4.8976712,3.7754064 5.2052048,3.6501298 5.1805072,3.8155501 C 5.1642395,5.126105 5.1971217,6.4368169 5.190029,7.7477014 C 5.1994782,8.9442338 5.1948012,10.143065 5.1994172,11.33812 C 5.2927559,11.711154 5.5830196,12.075912 5.9566547,12.187991 C 6.5737127,12.345102 7.2135861,12.239994 7.8305972,12.175342 C 8.4104357,11.991889 8.8224241,11.378102 8.7972822,10.772037 C 8.7982061,7.8694907 8.8233843,4.9660723 8.7466202,2.0642658 C 8.7883974,1.7039899 8.7297756,1.6052588 8.3314367,1.4093026 C 7.8323131,1.1499691 7.049965,1.1910183 6.4638307,1.2026691 C 5.8006311,1.2639663 5.1281484,1.4073582 4.557836,1.7653558 C 4.3485544,2.0627938 4.3663999,2.3280448 4.3549452,2.6847619 C 4.0243234,2.8014419 3.8776706,2.7701468 3.8809346,2.6779067 C 3.931403,2.3731562 3.8563576,1.9289693 4.2009747,1.5495654 C 4.8114825,0.87016222 5.8121739,0.88391674 6.6049437,0.81424626 z" />
</svg>
